<?xml version="1.0" encoding="UTF-8"?>
<!DOCTYPE svg PUBLIC "-//W3C//DTD SVG 1.1//EN" "http://www.w3.org/Graphics/SVG/1.1/DTD/svg11.dtd">
<svg version="1.2" width="149.3mm" height="50mm" viewBox="0 0 14930 5000" preserveAspectRatio="xMidYMid" fill-rule="evenodd" stroke-width="28.222" stroke-linejoin="round" xmlns="http://www.w3.org/2000/svg" xmlns:ooo="http://xml.openoffice.org/svg/export" xmlns:xlink="http://www.w3.org/1999/xlink" xmlns:presentation="http://sun.com/xmlns/staroffice/presentation" xmlns:smil="http://www.w3.org/2001/SMIL20/" xmlns:anim="urn:oasis:names:tc:opendocument:xmlns:animation:1.0" xml:space="preserve">
 <defs class="ClipPathGroup">
  <clipPath id="presentation_clip_path" clipPathUnits="userSpaceOnUse">
   <rect x="0" y="0" width="14930" height="5000"/>
  </clipPath>
  <clipPath id="presentation_clip_path_shrink" clipPathUnits="userSpaceOnUse">
   <rect x="14" y="5" width="14901" height="4990"/>
  </clipPath>
 </defs>
 <defs class="TextShapeIndex">
  <g ooo:slide="id1" ooo:id-list="id3 id4 id5 id6 id7 id8 id9 id10 id11 id12 id13 id14 id15 id16 id17 id18"/>
 </defs>
 <defs class="EmbeddedBulletChars">
  <g id="bullet-char-template-57356" transform="scale(0.00048828125,-0.00048828125)">
   <path d="M 580,1141 L 1163,571 580,0 -4,571 580,1141 Z"/>
  </g>
  <g id="bullet-char-template-57354" transform="scale(0.00048828125,-0.00048828125)">
   <path d="M 8,1128 L 1137,1128 1137,0 8,0 8,1128 Z"/>
  </g>
  <g id="bullet-char-template-10146" transform="scale(0.00048828125,-0.00048828125)">
   <path d="M 174,0 L 602,739 174,1481 1456,739 174,0 Z M 1358,739 L 309,1346 659,739 1358,739 Z"/>
  </g>
  <g id="bullet-char-template-10132" transform="scale(0.00048828125,-0.00048828125)">
   <path d="M 2015,739 L 1276,0 717,0 1260,543 174,543 174,936 1260,936 717,1481 1274,1481 2015,739 Z"/>
  </g>
  <g id="bullet-char-template-10007" transform="scale(0.00048828125,-0.00048828125)">
   <path d="M 0,-2 C -7,14 -16,27 -25,37 L 356,567 C 262,823 215,952 215,954 215,979 228,992 255,992 264,992 276,990 289,987 310,991 331,999 354,1012 L 381,999 492,748 772,1049 836,1024 860,1049 C 881,1039 901,1025 922,1006 886,937 835,863 770,784 769,783 710,716 594,584 L 774,223 C 774,196 753,168 711,139 L 727,119 C 717,90 699,76 672,76 641,76 570,178 457,381 L 164,-76 C 142,-110 111,-127 72,-127 30,-127 9,-110 8,-76 1,-67 -2,-52 -2,-32 -2,-23 -1,-13 0,-2 Z"/>
  </g>
  <g id="bullet-char-template-10004" transform="scale(0.00048828125,-0.00048828125)">
   <path d="M 285,-33 C 182,-33 111,30 74,156 52,228 41,333 41,471 41,549 55,616 82,672 116,743 169,778 240,778 293,778 328,747 346,684 L 369,508 C 377,444 397,411 428,410 L 1163,1116 C 1174,1127 1196,1133 1229,1133 1271,1133 1292,1118 1292,1087 L 1292,965 C 1292,929 1282,901 1262,881 L 442,47 C 390,-6 338,-33 285,-33 Z"/>
  </g>
  <g id="bullet-char-template-9679" transform="scale(0.00048828125,-0.00048828125)">
   <path d="M 813,0 C 632,0 489,54 383,161 276,268 223,411 223,592 223,773 276,916 383,1023 489,1130 632,1184 813,1184 992,1184 1136,1130 1245,1023 1353,916 1407,772 1407,592 1407,412 1353,268 1245,161 1136,54 992,0 813,0 Z"/>
  </g>
  <g id="bullet-char-template-8226" transform="scale(0.00048828125,-0.00048828125)">
   <path d="M 346,457 C 273,457 209,483 155,535 101,586 74,649 74,723 74,796 101,859 155,911 209,963 273,989 346,989 419,989 480,963 531,910 582,859 608,796 608,723 608,648 583,586 532,535 482,483 420,457 346,457 Z"/>
  </g>
  <g id="bullet-char-template-8211" transform="scale(0.00048828125,-0.00048828125)">
   <path d="M -4,459 L 1135,459 1135,606 -4,606 -4,459 Z"/>
  </g>
  <g id="bullet-char-template-61548" transform="scale(0.00048828125,-0.00048828125)">
   <path d="M 173,740 C 173,903 231,1043 346,1159 462,1274 601,1332 765,1332 928,1332 1067,1274 1183,1159 1299,1043 1357,903 1357,740 1357,577 1299,437 1183,322 1067,206 928,148 765,148 601,148 462,206 346,322 231,437 173,577 173,740 Z"/>
  </g>
 </defs>
 <g>
  <g id="id2" class="Master_Slide">
   <g id="bg-id2" class="Background"/>
   <g id="bo-id2" class="BackgroundObjects"/>
  </g>
 </g>
 <g class="SlideGroup">
  <g>
   <g id="container-id1">
    <g id="id1" class="Slide" clip-path="url(#presentation_clip_path)">
     <g class="Page">
      <g class="Graphic">
       <g id="id3">
        <rect class="BoundingBox" stroke="none" fill="none" x="1000" y="2000" width="2031" height="2001"/>
        <defs>
         <clipPath id="clip_path_1" clipPathUnits="userSpaceOnUse">
          <path d="M 1000,2000 L 3030,2000 3030,4000 1000,4000 1000,2000 Z"/>
         </clipPath>
        </defs>
        <g clip-path="url(#clip_path_1)">
         <path fill="rgb(182,204,221)" stroke="none" d="M 2395,2319 C 2384,2176 1916,1794 1506,2180 1096,2566 1061,2385 1022,2392 984,2400 1061,2484 1169,2470 1436,2435 1614,2103 1862,2107 2111,2110 2244,2327 2244,2327 L 2395,2319 2395,2319 Z"/>
         <path fill="none" stroke="rgb(0,0,0)" stroke-width="25" stroke-linejoin="miter" d="M 2395,2319 C 2384,2176 1916,1794 1506,2180 1096,2566 1061,2385 1022,2392 984,2400 1061,2484 1169,2470 1436,2435 1614,2103 1862,2107 2111,2110 2244,2327 2244,2327 L 2395,2319 Z"/>
         <path fill="rgb(0,0,0)" fill-opacity="0.31" stroke="rgb(255,255,255)" stroke-opacity="0.31" d="M 1861,2069 C 1750,2070 1630,2114 1515,2229 1410,2334 1332,2395 1274,2429 L 1274,2441 C 1486,2351 1648,2103 1861,2107 2111,2111 2244,2327 2244,2327 L 2302,2324 C 2257,2223 2076,2066 1861,2069 L 1861,2069 Z"/>
         <path fill="rgb(182,204,221)" stroke="none" d="M 2948,2929 C 2948,3279 2568,3922 2314,3922 2052,3922 1680,3279 1680,2929 1680,2580 1964,2296 2314,2296 2664,2296 2948,2580 2948,2929 L 2948,2929 Z"/>
         <path fill="none" stroke="rgb(0,0,0)" stroke-width="25" stroke-linejoin="miter" stroke-linecap="round" d="M 2948,2929 C 2948,3279 2568,3922 2314,3922 2052,3922 1680,3279 1680,2929 1680,2580 1964,2296 2314,2296 2664,2296 2948,2580 2948,2929 Z"/>
         <path fill="rgb(0,0,0)" fill-opacity="0.31" stroke="rgb(255,255,255)" stroke-opacity="0.31" d="M 2940,2826 C 2941,2844 2942,2862 2942,2880 2942,3230 2562,3873 2308,3873 2069,3873 1738,3338 1682,2979 1713,3336 2064,3922 2314,3922 2568,3922 2948,3279 2948,2929 2948,2894 2945,2860 2940,2826 L 2940,2826 Z"/>
         <path fill="rgb(182,204,221)" stroke="none" d="M 2755,3430 C 2902,3415 3018,3291 3018,3140 3018,2979 2887,2848 2726,2848 2565,2848 2434,2979 2434,3140 2434,3151 2434,3162 2436,3173 Z"/>
         <path fill="none" stroke="rgb(0,0,0)" stroke-width="25" stroke-linejoin="miter" stroke-linecap="round" d="M 2755,3430 C 2902,3415 3018,3291 3018,3140 3018,2979 2887,2848 2726,2848 2565,2848 2434,2979 2434,3140 2434,3151 2434,3162 2436,3173"/>
         <path fill="rgb(182,204,221)" stroke="none" d="M 2172,3177 C 2174,3165 2175,3152 2175,3140 2175,2979 2044,2848 1883,2848 1722,2848 1591,2979 1591,3140 1591,3295 1712,3422 1865,3431 Z"/>
         <path fill="none" stroke="rgb(0,0,0)" stroke-width="25" stroke-linejoin="miter" stroke-linecap="round" d="M 2172,3177 C 2174,3165 2175,3152 2175,3140 2175,2979 2044,2848 1883,2848 1722,2848 1591,2979 1591,3140 1591,3295 1712,3422 1865,3431"/>
         <path fill="rgb(0,0,0)" stroke="none" d="M 2384,3789 C 2384,3827 2339,3872 2316,3872 2290,3872 2248,3827 2248,3789 2248,3752 2278,3756 2316,3756 2354,3756 2384,3752 2384,3789 L 2384,3789 Z"/>
         <path fill="rgb(0,0,0)" stroke="none" d="M 2179,3538 C 2179,3573 2157,3601 2130,3601 2104,3601 2082,3573 2082,3538 2082,3503 2104,3474 2130,3474 2157,3474 2179,3503 2179,3538 L 2179,3538 Z"/>
         <path fill="none" stroke="rgb(0,0,0)" stroke-width="12" stroke-linejoin="miter" stroke-linecap="round" d="M 2179,3538 C 2179,3573 2157,3601 2130,3601 2104,3601 2082,3573 2082,3538 2082,3503 2104,3474 2130,3474 2157,3474 2179,3503 2179,3538 Z"/>
         <path fill="rgb(0,0,0)" stroke="none" d="M 2527,3538 C 2527,3573 2505,3601 2478,3601 2452,3601 2430,3573 2430,3538 2430,3503 2452,3474 2478,3474 2505,3474 2527,3503 2527,3538 L 2527,3538 Z"/>
         <path fill="none" stroke="rgb(0,0,0)" stroke-width="12" stroke-linejoin="miter" stroke-linecap="round" d="M 2527,3538 C 2527,3573 2505,3601 2478,3601 2452,3601 2430,3573 2430,3538 2430,3503 2452,3474 2478,3474 2505,3474 2527,3503 2527,3538 Z"/>
         <path fill="rgb(255,255,255)" stroke="none" d="M 2150,3523 C 2150,3535 2144,3545 2136,3545 2129,3545 2123,3535 2123,3523 2123,3511 2129,3501 2136,3501 2144,3501 2150,3511 2150,3523 L 2150,3523 2150,3523 Z"/>
         <path fill="rgb(255,255,255)" stroke="none" d="M 2488,3529 C 2488,3541 2482,3551 2474,3551 2467,3551 2461,3541 2461,3529 2461,3517 2467,3507 2474,3507 2482,3507 2488,3517 2488,3529 L 2488,3529 2488,3529 Z"/>
         <path fill="rgb(0,0,0)" fill-opacity="0.31" stroke="rgb(255,255,255)" stroke-opacity="0.31" d="M 2727,2890 C 2617,2891 2515,2976 2489,3081 2541,3048 2605,3027 2675,3027 2816,3027 2935,3109 2970,3219 3025,3072 2899,2889 2739,2890 2735,2890 2731,2890 2727,2890 L 2727,2890 Z"/>
         <path fill="none" stroke="rgb(0,0,0)" stroke-width="24" stroke-linejoin="miter" stroke-linecap="round" d="M 2442,3754 C 2722,3624 2851,3743 2851,3743"/>
         <path fill="none" stroke="rgb(0,0,0)" stroke-width="24" stroke-linejoin="miter" stroke-linecap="round" d="M 2415,3803 C 2620,3673 2797,3885 2797,3885"/>
         <path fill="none" stroke="rgb(0,0,0)" stroke-width="24" stroke-linejoin="miter" stroke-linecap="round" d="M 2415,3830 C 2630,3722 2668,3988 2668,3988"/>
         <path fill="none" stroke="rgb(0,0,0)" stroke-width="24" stroke-linejoin="miter" stroke-linecap="round" d="M 2186,3754 C 1906,3624 1777,3743 1777,3743"/>
         <path fill="none" stroke="rgb(0,0,0)" stroke-width="24" stroke-linejoin="miter" stroke-linecap="round" d="M 2213,3803 C 2008,3673 1831,3885 1831,3885"/>
         <path fill="none" stroke="rgb(0,0,0)" stroke-width="24" stroke-linejoin="miter" stroke-linecap="round" d="M 2213,3830 C 1998,3722 1960,3988 1960,3988"/>
         <path fill="rgb(0,0,0)" fill-opacity="0.31" stroke="rgb(255,255,255)" stroke-opacity="0.31" d="M 1894,2890 C 2004,2891 2105,2976 2131,3081 2080,3048 2015,3027 1945,3027 1804,3027 1686,3109 1651,3219 1596,3072 1722,2889 1881,2890 1886,2890 1890,2890 1894,2890 L 1894,2890 Z"/>
        </g>
       </g>
      </g>
      <g class="Graphic">
       <g id="id4">
        <rect class="BoundingBox" stroke="none" fill="none" x="2300" y="1000" width="2031" height="2001"/>
        <defs>
         <clipPath id="clip_path_2" clipPathUnits="userSpaceOnUse">
          <path d="M 2300,1000 L 4330,1000 4330,3000 2300,3000 2300,1000 Z"/>
         </clipPath>
        </defs>
        <g clip-path="url(#clip_path_2)">
         <path fill="rgb(182,204,221)" stroke="none" d="M 3695,1319 C 3684,1176 3216,794 2806,1180 2396,1566 2361,1385 2322,1392 2284,1400 2361,1484 2469,1470 2736,1435 2914,1103 3162,1107 3411,1110 3544,1327 3544,1327 L 3695,1319 3695,1319 Z"/>
         <path fill="none" stroke="rgb(0,0,0)" stroke-width="25" stroke-linejoin="miter" d="M 3695,1319 C 3684,1176 3216,794 2806,1180 2396,1566 2361,1385 2322,1392 2284,1400 2361,1484 2469,1470 2736,1435 2914,1103 3162,1107 3411,1110 3544,1327 3544,1327 L 3695,1319 Z"/>
         <path fill="rgb(0,0,0)" fill-opacity="0.31" stroke="rgb(255,255,255)" stroke-opacity="0.31" d="M 3161,1069 C 3050,1070 2930,1114 2815,1229 2710,1334 2632,1395 2574,1429 L 2574,1441 C 2786,1351 2948,1103 3161,1107 3411,1111 3544,1327 3544,1327 L 3602,1324 C 3557,1223 3376,1066 3161,1069 L 3161,1069 Z"/>
         <path fill="rgb(182,204,221)" stroke="none" d="M 4248,1929 C 4248,2279 3868,2922 3614,2922 3352,2922 2980,2279 2980,1929 2980,1580 3264,1296 3614,1296 3964,1296 4248,1580 4248,1929 L 4248,1929 Z"/>
         <path fill="none" stroke="rgb(0,0,0)" stroke-width="25" stroke-linejoin="miter" stroke-linecap="round" d="M 4248,1929 C 4248,2279 3868,2922 3614,2922 3352,2922 2980,2279 2980,1929 2980,1580 3264,1296 3614,1296 3964,1296 4248,1580 4248,1929 Z"/>
         <path fill="rgb(0,0,0)" fill-opacity="0.31" stroke="rgb(255,255,255)" stroke-opacity="0.31" d="M 4240,1826 C 4241,1844 4242,1862 4242,1880 4242,2230 3862,2873 3608,2873 3369,2873 3038,2338 2982,1979 3013,2336 3364,2922 3614,2922 3868,2922 4248,2279 4248,1929 4248,1894 4245,1860 4240,1826 L 4240,1826 Z"/>
         <path fill="rgb(182,204,221)" stroke="none" d="M 4055,2430 C 4202,2415 4318,2291 4318,2140 4318,1979 4187,1848 4026,1848 3865,1848 3734,1979 3734,2140 3734,2151 3734,2162 3736,2173 Z"/>
         <path fill="none" stroke="rgb(0,0,0)" stroke-width="25" stroke-linejoin="miter" stroke-linecap="round" d="M 4055,2430 C 4202,2415 4318,2291 4318,2140 4318,1979 4187,1848 4026,1848 3865,1848 3734,1979 3734,2140 3734,2151 3734,2162 3736,2173"/>
         <path fill="rgb(182,204,221)" stroke="none" d="M 3472,2177 C 3474,2165 3475,2152 3475,2140 3475,1979 3344,1848 3183,1848 3022,1848 2891,1979 2891,2140 2891,2295 3012,2422 3165,2431 Z"/>
         <path fill="none" stroke="rgb(0,0,0)" stroke-width="25" stroke-linejoin="miter" stroke-linecap="round" d="M 3472,2177 C 3474,2165 3475,2152 3475,2140 3475,1979 3344,1848 3183,1848 3022,1848 2891,1979 2891,2140 2891,2295 3012,2422 3165,2431"/>
         <path fill="rgb(0,0,0)" stroke="none" d="M 3684,2789 C 3684,2827 3639,2872 3616,2872 3590,2872 3548,2827 3548,2789 3548,2752 3578,2756 3616,2756 3654,2756 3684,2752 3684,2789 L 3684,2789 Z"/>
         <path fill="rgb(0,0,0)" stroke="none" d="M 3479,2538 C 3479,2573 3457,2601 3430,2601 3404,2601 3382,2573 3382,2538 3382,2503 3404,2474 3430,2474 3457,2474 3479,2503 3479,2538 L 3479,2538 Z"/>
         <path fill="none" stroke="rgb(0,0,0)" stroke-width="12" stroke-linejoin="miter" stroke-linecap="round" d="M 3479,2538 C 3479,2573 3457,2601 3430,2601 3404,2601 3382,2573 3382,2538 3382,2503 3404,2474 3430,2474 3457,2474 3479,2503 3479,2538 Z"/>
         <path fill="rgb(0,0,0)" stroke="none" d="M 3827,2538 C 3827,2573 3805,2601 3778,2601 3752,2601 3730,2573 3730,2538 3730,2503 3752,2474 3778,2474 3805,2474 3827,2503 3827,2538 L 3827,2538 Z"/>
         <path fill="none" stroke="rgb(0,0,0)" stroke-width="12" stroke-linejoin="miter" stroke-linecap="round" d="M 3827,2538 C 3827,2573 3805,2601 3778,2601 3752,2601 3730,2573 3730,2538 3730,2503 3752,2474 3778,2474 3805,2474 3827,2503 3827,2538 Z"/>
         <path fill="rgb(255,255,255)" stroke="none" d="M 3450,2523 C 3450,2535 3444,2545 3436,2545 3429,2545 3423,2535 3423,2523 3423,2511 3429,2501 3436,2501 3444,2501 3450,2511 3450,2523 L 3450,2523 3450,2523 Z"/>
         <path fill="rgb(255,255,255)" stroke="none" d="M 3788,2529 C 3788,2541 3782,2551 3774,2551 3767,2551 3761,2541 3761,2529 3761,2517 3767,2507 3774,2507 3782,2507 3788,2517 3788,2529 L 3788,2529 3788,2529 Z"/>
         <path fill="rgb(0,0,0)" fill-opacity="0.31" stroke="rgb(255,255,255)" stroke-opacity="0.31" d="M 4027,1890 C 3917,1891 3815,1976 3789,2081 3841,2048 3905,2027 3975,2027 4116,2027 4235,2109 4270,2219 4325,2072 4199,1889 4039,1890 4035,1890 4031,1890 4027,1890 L 4027,1890 Z"/>
         <path fill="none" stroke="rgb(0,0,0)" stroke-width="24" stroke-linejoin="miter" stroke-linecap="round" d="M 3742,2754 C 4022,2624 4151,2743 4151,2743"/>
         <path fill="none" stroke="rgb(0,0,0)" stroke-width="24" stroke-linejoin="miter" stroke-linecap="round" d="M 3715,2803 C 3920,2673 4097,2885 4097,2885"/>
         <path fill="none" stroke="rgb(0,0,0)" stroke-width="24" stroke-linejoin="miter" stroke-linecap="round" d="M 3715,2830 C 3930,2722 3968,2988 3968,2988"/>
         <path fill="none" stroke="rgb(0,0,0)" stroke-width="24" stroke-linejoin="miter" stroke-linecap="round" d="M 3486,2754 C 3206,2624 3077,2743 3077,2743"/>
         <path fill="none" stroke="rgb(0,0,0)" stroke-width="24" stroke-linejoin="miter" stroke-linecap="round" d="M 3513,2803 C 3308,2673 3131,2885 3131,2885"/>
         <path fill="none" stroke="rgb(0,0,0)" stroke-width="24" stroke-linejoin="miter" stroke-linecap="round" d="M 3513,2830 C 3298,2722 3260,2988 3260,2988"/>
         <path fill="rgb(0,0,0)" fill-opacity="0.31" stroke="rgb(255,255,255)" stroke-opacity="0.31" d="M 3194,1890 C 3304,1891 3405,1976 3431,2081 3380,2048 3315,2027 3245,2027 3104,2027 2986,2109 2951,2219 2896,2072 3022,1889 3181,1890 3186,1890 3190,1890 3194,1890 L 3194,1890 Z"/>
        </g>
       </g>
      </g>
      <g class="Graphic">
       <g id="id5">
        <rect class="BoundingBox" stroke="none" fill="none" x="4200" y="2000" width="2031" height="2001"/>
        <defs>
         <clipPath id="clip_path_3" clipPathUnits="userSpaceOnUse">
          <path d="M 4200,2000 L 6230,2000 6230,4000 4200,4000 4200,2000 Z"/>
         </clipPath>
        </defs>
        <g clip-path="url(#clip_path_3)">
         <path fill="rgb(182,204,221)" stroke="none" d="M 5595,2319 C 5584,2176 5116,1794 4706,2180 4296,2566 4261,2385 4222,2392 4184,2400 4261,2484 4369,2470 4636,2435 4814,2103 5062,2107 5311,2110 5444,2327 5444,2327 L 5595,2319 5595,2319 Z"/>
         <path fill="none" stroke="rgb(0,0,0)" stroke-width="25" stroke-linejoin="miter" d="M 5595,2319 C 5584,2176 5116,1794 4706,2180 4296,2566 4261,2385 4222,2392 4184,2400 4261,2484 4369,2470 4636,2435 4814,2103 5062,2107 5311,2110 5444,2327 5444,2327 L 5595,2319 Z"/>
         <path fill="rgb(0,0,0)" fill-opacity="0.31" stroke="rgb(255,255,255)" stroke-opacity="0.31" d="M 5061,2069 C 4950,2070 4830,2114 4715,2229 4610,2334 4532,2395 4474,2429 L 4474,2441 C 4686,2351 4848,2103 5061,2107 5311,2111 5444,2327 5444,2327 L 5502,2324 C 5457,2223 5276,2066 5061,2069 L 5061,2069 Z"/>
         <path fill="rgb(182,204,221)" stroke="none" d="M 6148,2929 C 6148,3279 5768,3922 5514,3922 5252,3922 4880,3279 4880,2929 4880,2580 5164,2296 5514,2296 5864,2296 6148,2580 6148,2929 L 6148,2929 Z"/>
         <path fill="none" stroke="rgb(0,0,0)" stroke-width="25" stroke-linejoin="miter" stroke-linecap="round" d="M 6148,2929 C 6148,3279 5768,3922 5514,3922 5252,3922 4880,3279 4880,2929 4880,2580 5164,2296 5514,2296 5864,2296 6148,2580 6148,2929 Z"/>
         <path fill="rgb(0,0,0)" fill-opacity="0.31" stroke="rgb(255,255,255)" stroke-opacity="0.31" d="M 6140,2826 C 6141,2844 6142,2862 6142,2880 6142,3230 5762,3873 5508,3873 5269,3873 4938,3338 4882,2979 4913,3336 5264,3922 5514,3922 5768,3922 6148,3279 6148,2929 6148,2894 6145,2860 6140,2826 L 6140,2826 Z"/>
         <path fill="rgb(182,204,221)" stroke="none" d="M 5955,3430 C 6102,3415 6218,3291 6218,3140 6218,2979 6087,2848 5926,2848 5765,2848 5634,2979 5634,3140 5634,3151 5634,3162 5636,3173 Z"/>
         <path fill="none" stroke="rgb(0,0,0)" stroke-width="25" stroke-linejoin="miter" stroke-linecap="round" d="M 5955,3430 C 6102,3415 6218,3291 6218,3140 6218,2979 6087,2848 5926,2848 5765,2848 5634,2979 5634,3140 5634,3151 5634,3162 5636,3173"/>
         <path fill="rgb(182,204,221)" stroke="none" d="M 5372,3177 C 5374,3165 5375,3152 5375,3140 5375,2979 5244,2848 5083,2848 4922,2848 4791,2979 4791,3140 4791,3295 4912,3422 5065,3431 Z"/>
         <path fill="none" stroke="rgb(0,0,0)" stroke-width="25" stroke-linejoin="miter" stroke-linecap="round" d="M 5372,3177 C 5374,3165 5375,3152 5375,3140 5375,2979 5244,2848 5083,2848 4922,2848 4791,2979 4791,3140 4791,3295 4912,3422 5065,3431"/>
         <path fill="rgb(0,0,0)" stroke="none" d="M 5584,3789 C 5584,3827 5539,3872 5516,3872 5490,3872 5448,3827 5448,3789 5448,3752 5478,3756 5516,3756 5554,3756 5584,3752 5584,3789 L 5584,3789 Z"/>
         <path fill="rgb(0,0,0)" stroke="none" d="M 5379,3538 C 5379,3573 5357,3601 5330,3601 5304,3601 5282,3573 5282,3538 5282,3503 5304,3474 5330,3474 5357,3474 5379,3503 5379,3538 L 5379,3538 Z"/>
         <path fill="none" stroke="rgb(0,0,0)" stroke-width="12" stroke-linejoin="miter" stroke-linecap="round" d="M 5379,3538 C 5379,3573 5357,3601 5330,3601 5304,3601 5282,3573 5282,3538 5282,3503 5304,3474 5330,3474 5357,3474 5379,3503 5379,3538 Z"/>
         <path fill="rgb(0,0,0)" stroke="none" d="M 5727,3538 C 5727,3573 5705,3601 5678,3601 5652,3601 5630,3573 5630,3538 5630,3503 5652,3474 5678,3474 5705,3474 5727,3503 5727,3538 L 5727,3538 Z"/>
         <path fill="none" stroke="rgb(0,0,0)" stroke-width="12" stroke-linejoin="miter" stroke-linecap="round" d="M 5727,3538 C 5727,3573 5705,3601 5678,3601 5652,3601 5630,3573 5630,3538 5630,3503 5652,3474 5678,3474 5705,3474 5727,3503 5727,3538 Z"/>
         <path fill="rgb(255,255,255)" stroke="none" d="M 5350,3523 C 5350,3535 5344,3545 5336,3545 5329,3545 5323,3535 5323,3523 5323,3511 5329,3501 5336,3501 5344,3501 5350,3511 5350,3523 L 5350,3523 5350,3523 Z"/>
         <path fill="rgb(255,255,255)" stroke="none" d="M 5688,3529 C 5688,3541 5682,3551 5674,3551 5667,3551 5661,3541 5661,3529 5661,3517 5667,3507 5674,3507 5682,3507 5688,3517 5688,3529 L 5688,3529 5688,3529 Z"/>
         <path fill="rgb(0,0,0)" fill-opacity="0.31" stroke="rgb(255,255,255)" stroke-opacity="0.31" d="M 5927,2890 C 5817,2891 5715,2976 5689,3081 5741,3048 5805,3027 5875,3027 6016,3027 6135,3109 6170,3219 6225,3072 6099,2889 5939,2890 5935,2890 5931,2890 5927,2890 L 5927,2890 Z"/>
         <path fill="none" stroke="rgb(0,0,0)" stroke-width="24" stroke-linejoin="miter" stroke-linecap="round" d="M 5642,3754 C 5922,3624 6051,3743 6051,3743"/>
         <path fill="none" stroke="rgb(0,0,0)" stroke-width="24" stroke-linejoin="miter" stroke-linecap="round" d="M 5615,3803 C 5820,3673 5997,3885 5997,3885"/>
         <path fill="none" stroke="rgb(0,0,0)" stroke-width="24" stroke-linejoin="miter" stroke-linecap="round" d="M 5615,3830 C 5830,3722 5868,3988 5868,3988"/>
         <path fill="none" stroke="rgb(0,0,0)" stroke-width="24" stroke-linejoin="miter" stroke-linecap="round" d="M 5386,3754 C 5106,3624 4977,3743 4977,3743"/>
         <path fill="none" stroke="rgb(0,0,0)" stroke-width="24" stroke-linejoin="miter" stroke-linecap="round" d="M 5413,3803 C 5208,3673 5031,3885 5031,3885"/>
         <path fill="none" stroke="rgb(0,0,0)" stroke-width="24" stroke-linejoin="miter" stroke-linecap="round" d="M 5413,3830 C 5198,3722 5160,3988 5160,3988"/>
         <path fill="rgb(0,0,0)" fill-opacity="0.31" stroke="rgb(255,255,255)" stroke-opacity="0.31" d="M 5094,2890 C 5204,2891 5305,2976 5331,3081 5280,3048 5215,3027 5145,3027 5004,3027 4886,3109 4851,3219 4796,3072 4922,2889 5081,2890 5086,2890 5090,2890 5094,2890 L 5094,2890 Z"/>
        </g>
       </g>
      </g>
      <g class="Graphic">
       <g id="id6">
        <rect class="BoundingBox" stroke="none" fill="none" x="5500" y="1000" width="2031" height="2001"/>
        <defs>
         <clipPath id="clip_path_4" clipPathUnits="userSpaceOnUse">
          <path d="M 5500,1000 L 7530,1000 7530,3000 5500,3000 5500,1000 Z"/>
         </clipPath>
        </defs>
        <g clip-path="url(#clip_path_4)">
         <path fill="rgb(182,204,221)" stroke="none" d="M 6895,1319 C 6884,1176 6416,794 6006,1180 5596,1566 5561,1385 5522,1392 5484,1400 5561,1484 5669,1470 5936,1435 6114,1103 6362,1107 6611,1110 6744,1327 6744,1327 L 6895,1319 6895,1319 Z"/>
         <path fill="none" stroke="rgb(0,0,0)" stroke-width="25" stroke-linejoin="miter" d="M 6895,1319 C 6884,1176 6416,794 6006,1180 5596,1566 5561,1385 5522,1392 5484,1400 5561,1484 5669,1470 5936,1435 6114,1103 6362,1107 6611,1110 6744,1327 6744,1327 L 6895,1319 Z"/>
         <path fill="rgb(0,0,0)" fill-opacity="0.31" stroke="rgb(255,255,255)" stroke-opacity="0.31" d="M 6361,1069 C 6250,1070 6130,1114 6015,1229 5910,1334 5832,1395 5774,1429 L 5774,1441 C 5986,1351 6148,1103 6361,1107 6611,1111 6744,1327 6744,1327 L 6802,1324 C 6757,1223 6576,1066 6361,1069 L 6361,1069 Z"/>
         <path fill="rgb(182,204,221)" stroke="none" d="M 7448,1929 C 7448,2279 7068,2922 6814,2922 6552,2922 6180,2279 6180,1929 6180,1580 6464,1296 6814,1296 7164,1296 7448,1580 7448,1929 L 7448,1929 Z"/>
         <path fill="none" stroke="rgb(0,0,0)" stroke-width="25" stroke-linejoin="miter" stroke-linecap="round" d="M 7448,1929 C 7448,2279 7068,2922 6814,2922 6552,2922 6180,2279 6180,1929 6180,1580 6464,1296 6814,1296 7164,1296 7448,1580 7448,1929 Z"/>
         <path fill="rgb(0,0,0)" fill-opacity="0.31" stroke="rgb(255,255,255)" stroke-opacity="0.31" d="M 7440,1826 C 7441,1844 7442,1862 7442,1880 7442,2230 7062,2873 6808,2873 6569,2873 6238,2338 6182,1979 6213,2336 6564,2922 6814,2922 7068,2922 7448,2279 7448,1929 7448,1894 7445,1860 7440,1826 L 7440,1826 Z"/>
         <path fill="rgb(182,204,221)" stroke="none" d="M 7255,2430 C 7402,2415 7518,2291 7518,2140 7518,1979 7387,1848 7226,1848 7065,1848 6934,1979 6934,2140 6934,2151 6934,2162 6936,2173 Z"/>
         <path fill="none" stroke="rgb(0,0,0)" stroke-width="25" stroke-linejoin="miter" stroke-linecap="round" d="M 7255,2430 C 7402,2415 7518,2291 7518,2140 7518,1979 7387,1848 7226,1848 7065,1848 6934,1979 6934,2140 6934,2151 6934,2162 6936,2173"/>
         <path fill="rgb(182,204,221)" stroke="none" d="M 6672,2177 C 6674,2165 6675,2152 6675,2140 6675,1979 6544,1848 6383,1848 6222,1848 6091,1979 6091,2140 6091,2295 6212,2422 6365,2431 Z"/>
         <path fill="none" stroke="rgb(0,0,0)" stroke-width="25" stroke-linejoin="miter" stroke-linecap="round" d="M 6672,2177 C 6674,2165 6675,2152 6675,2140 6675,1979 6544,1848 6383,1848 6222,1848 6091,1979 6091,2140 6091,2295 6212,2422 6365,2431"/>
         <path fill="rgb(0,0,0)" stroke="none" d="M 6884,2789 C 6884,2827 6839,2872 6816,2872 6790,2872 6748,2827 6748,2789 6748,2752 6778,2756 6816,2756 6854,2756 6884,2752 6884,2789 L 6884,2789 Z"/>
         <path fill="rgb(0,0,0)" stroke="none" d="M 6679,2538 C 6679,2573 6657,2601 6630,2601 6604,2601 6582,2573 6582,2538 6582,2503 6604,2474 6630,2474 6657,2474 6679,2503 6679,2538 L 6679,2538 Z"/>
         <path fill="none" stroke="rgb(0,0,0)" stroke-width="12" stroke-linejoin="miter" stroke-linecap="round" d="M 6679,2538 C 6679,2573 6657,2601 6630,2601 6604,2601 6582,2573 6582,2538 6582,2503 6604,2474 6630,2474 6657,2474 6679,2503 6679,2538 Z"/>
         <path fill="rgb(0,0,0)" stroke="none" d="M 7027,2538 C 7027,2573 7005,2601 6978,2601 6952,2601 6930,2573 6930,2538 6930,2503 6952,2474 6978,2474 7005,2474 7027,2503 7027,2538 L 7027,2538 Z"/>
         <path fill="none" stroke="rgb(0,0,0)" stroke-width="12" stroke-linejoin="miter" stroke-linecap="round" d="M 7027,2538 C 7027,2573 7005,2601 6978,2601 6952,2601 6930,2573 6930,2538 6930,2503 6952,2474 6978,2474 7005,2474 7027,2503 7027,2538 Z"/>
         <path fill="rgb(255,255,255)" stroke="none" d="M 6650,2523 C 6650,2535 6644,2545 6636,2545 6629,2545 6623,2535 6623,2523 6623,2511 6629,2501 6636,2501 6644,2501 6650,2511 6650,2523 L 6650,2523 6650,2523 Z"/>
         <path fill="rgb(255,255,255)" stroke="none" d="M 6988,2529 C 6988,2541 6982,2551 6974,2551 6967,2551 6961,2541 6961,2529 6961,2517 6967,2507 6974,2507 6982,2507 6988,2517 6988,2529 L 6988,2529 6988,2529 Z"/>
         <path fill="rgb(0,0,0)" fill-opacity="0.31" stroke="rgb(255,255,255)" stroke-opacity="0.31" d="M 7227,1890 C 7117,1891 7015,1976 6989,2081 7041,2048 7105,2027 7175,2027 7316,2027 7435,2109 7470,2219 7525,2072 7399,1889 7239,1890 7235,1890 7231,1890 7227,1890 L 7227,1890 Z"/>
         <path fill="none" stroke="rgb(0,0,0)" stroke-width="24" stroke-linejoin="miter" stroke-linecap="round" d="M 6942,2754 C 7222,2624 7351,2743 7351,2743"/>
         <path fill="none" stroke="rgb(0,0,0)" stroke-width="24" stroke-linejoin="miter" stroke-linecap="round" d="M 6915,2803 C 7120,2673 7297,2885 7297,2885"/>
         <path fill="none" stroke="rgb(0,0,0)" stroke-width="24" stroke-linejoin="miter" stroke-linecap="round" d="M 6915,2830 C 7130,2722 7168,2988 7168,2988"/>
         <path fill="none" stroke="rgb(0,0,0)" stroke-width="24" stroke-linejoin="miter" stroke-linecap="round" d="M 6686,2754 C 6406,2624 6277,2743 6277,2743"/>
         <path fill="none" stroke="rgb(0,0,0)" stroke-width="24" stroke-linejoin="miter" stroke-linecap="round" d="M 6713,2803 C 6508,2673 6331,2885 6331,2885"/>
         <path fill="none" stroke="rgb(0,0,0)" stroke-width="24" stroke-linejoin="miter" stroke-linecap="round" d="M 6713,2830 C 6498,2722 6460,2988 6460,2988"/>
         <path fill="rgb(0,0,0)" fill-opacity="0.31" stroke="rgb(255,255,255)" stroke-opacity="0.31" d="M 6394,1890 C 6504,1891 6605,1976 6631,2081 6580,2048 6515,2027 6445,2027 6304,2027 6186,2109 6151,2219 6096,2072 6222,1889 6381,1890 6386,1890 6390,1890 6394,1890 L 6394,1890 Z"/>
        </g>
       </g>
      </g>
      <g class="Graphic">
       <g id="id7">
        <rect class="BoundingBox" stroke="none" fill="none" x="7400" y="2000" width="2031" height="2001"/>
        <defs>
         <clipPath id="clip_path_5" clipPathUnits="userSpaceOnUse">
          <path d="M 7400,2000 L 9430,2000 9430,4000 7400,4000 7400,2000 Z"/>
         </clipPath>
        </defs>
        <g clip-path="url(#clip_path_5)">
         <path fill="rgb(182,204,221)" stroke="none" d="M 8795,2319 C 8784,2176 8316,1794 7906,2180 7496,2566 7461,2385 7422,2392 7384,2400 7461,2484 7569,2470 7836,2435 8014,2103 8262,2107 8511,2110 8644,2327 8644,2327 L 8795,2319 8795,2319 Z"/>
         <path fill="none" stroke="rgb(0,0,0)" stroke-width="25" stroke-linejoin="miter" d="M 8795,2319 C 8784,2176 8316,1794 7906,2180 7496,2566 7461,2385 7422,2392 7384,2400 7461,2484 7569,2470 7836,2435 8014,2103 8262,2107 8511,2110 8644,2327 8644,2327 L 8795,2319 Z"/>
         <path fill="rgb(0,0,0)" fill-opacity="0.31" stroke="rgb(255,255,255)" stroke-opacity="0.31" d="M 8261,2069 C 8150,2070 8030,2114 7915,2229 7810,2334 7732,2395 7674,2429 L 7674,2441 C 7886,2351 8048,2103 8261,2107 8511,2111 8644,2327 8644,2327 L 8702,2324 C 8657,2223 8476,2066 8261,2069 L 8261,2069 Z"/>
         <path fill="rgb(182,204,221)" stroke="none" d="M 9348,2929 C 9348,3279 8968,3922 8714,3922 8452,3922 8080,3279 8080,2929 8080,2580 8364,2296 8714,2296 9064,2296 9348,2580 9348,2929 L 9348,2929 Z"/>
         <path fill="none" stroke="rgb(0,0,0)" stroke-width="25" stroke-linejoin="miter" stroke-linecap="round" d="M 9348,2929 C 9348,3279 8968,3922 8714,3922 8452,3922 8080,3279 8080,2929 8080,2580 8364,2296 8714,2296 9064,2296 9348,2580 9348,2929 Z"/>
         <path fill="rgb(0,0,0)" fill-opacity="0.31" stroke="rgb(255,255,255)" stroke-opacity="0.31" d="M 9340,2826 C 9341,2844 9342,2862 9342,2880 9342,3230 8962,3873 8708,3873 8469,3873 8138,3338 8082,2979 8113,3336 8464,3922 8714,3922 8968,3922 9348,3279 9348,2929 9348,2894 9345,2860 9340,2826 L 9340,2826 Z"/>
         <path fill="rgb(182,204,221)" stroke="none" d="M 9155,3430 C 9302,3415 9418,3291 9418,3140 9418,2979 9287,2848 9126,2848 8965,2848 8834,2979 8834,3140 8834,3151 8834,3162 8836,3173 Z"/>
         <path fill="none" stroke="rgb(0,0,0)" stroke-width="25" stroke-linejoin="miter" stroke-linecap="round" d="M 9155,3430 C 9302,3415 9418,3291 9418,3140 9418,2979 9287,2848 9126,2848 8965,2848 8834,2979 8834,3140 8834,3151 8834,3162 8836,3173"/>
         <path fill="rgb(182,204,221)" stroke="none" d="M 8572,3177 C 8574,3165 8575,3152 8575,3140 8575,2979 8444,2848 8283,2848 8122,2848 7991,2979 7991,3140 7991,3295 8112,3422 8265,3431 Z"/>
         <path fill="none" stroke="rgb(0,0,0)" stroke-width="25" stroke-linejoin="miter" stroke-linecap="round" d="M 8572,3177 C 8574,3165 8575,3152 8575,3140 8575,2979 8444,2848 8283,2848 8122,2848 7991,2979 7991,3140 7991,3295 8112,3422 8265,3431"/>
         <path fill="rgb(0,0,0)" stroke="none" d="M 8784,3789 C 8784,3827 8739,3872 8716,3872 8690,3872 8648,3827 8648,3789 8648,3752 8678,3756 8716,3756 8754,3756 8784,3752 8784,3789 L 8784,3789 Z"/>
         <path fill="rgb(0,0,0)" stroke="none" d="M 8579,3538 C 8579,3573 8557,3601 8530,3601 8504,3601 8482,3573 8482,3538 8482,3503 8504,3474 8530,3474 8557,3474 8579,3503 8579,3538 L 8579,3538 Z"/>
         <path fill="none" stroke="rgb(0,0,0)" stroke-width="12" stroke-linejoin="miter" stroke-linecap="round" d="M 8579,3538 C 8579,3573 8557,3601 8530,3601 8504,3601 8482,3573 8482,3538 8482,3503 8504,3474 8530,3474 8557,3474 8579,3503 8579,3538 Z"/>
         <path fill="rgb(0,0,0)" stroke="none" d="M 8927,3538 C 8927,3573 8905,3601 8878,3601 8852,3601 8830,3573 8830,3538 8830,3503 8852,3474 8878,3474 8905,3474 8927,3503 8927,3538 L 8927,3538 Z"/>
         <path fill="none" stroke="rgb(0,0,0)" stroke-width="12" stroke-linejoin="miter" stroke-linecap="round" d="M 8927,3538 C 8927,3573 8905,3601 8878,3601 8852,3601 8830,3573 8830,3538 8830,3503 8852,3474 8878,3474 8905,3474 8927,3503 8927,3538 Z"/>
         <path fill="rgb(255,255,255)" stroke="none" d="M 8550,3523 C 8550,3535 8544,3545 8536,3545 8529,3545 8523,3535 8523,3523 8523,3511 8529,3501 8536,3501 8544,3501 8550,3511 8550,3523 L 8550,3523 8550,3523 Z"/>
         <path fill="rgb(255,255,255)" stroke="none" d="M 8888,3529 C 8888,3541 8882,3551 8874,3551 8867,3551 8861,3541 8861,3529 8861,3517 8867,3507 8874,3507 8882,3507 8888,3517 8888,3529 L 8888,3529 8888,3529 Z"/>
         <path fill="rgb(0,0,0)" fill-opacity="0.31" stroke="rgb(255,255,255)" stroke-opacity="0.31" d="M 9127,2890 C 9017,2891 8915,2976 8889,3081 8941,3048 9005,3027 9075,3027 9216,3027 9335,3109 9370,3219 9425,3072 9299,2889 9139,2890 9135,2890 9131,2890 9127,2890 L 9127,2890 Z"/>
         <path fill="none" stroke="rgb(0,0,0)" stroke-width="24" stroke-linejoin="miter" stroke-linecap="round" d="M 8842,3754 C 9122,3624 9251,3743 9251,3743"/>
         <path fill="none" stroke="rgb(0,0,0)" stroke-width="24" stroke-linejoin="miter" stroke-linecap="round" d="M 8815,3803 C 9020,3673 9197,3885 9197,3885"/>
         <path fill="none" stroke="rgb(0,0,0)" stroke-width="24" stroke-linejoin="miter" stroke-linecap="round" d="M 8815,3830 C 9030,3722 9068,3988 9068,3988"/>
         <path fill="none" stroke="rgb(0,0,0)" stroke-width="24" stroke-linejoin="miter" stroke-linecap="round" d="M 8586,3754 C 8306,3624 8177,3743 8177,3743"/>
         <path fill="none" stroke="rgb(0,0,0)" stroke-width="24" stroke-linejoin="miter" stroke-linecap="round" d="M 8613,3803 C 8408,3673 8231,3885 8231,3885"/>
         <path fill="none" stroke="rgb(0,0,0)" stroke-width="24" stroke-linejoin="miter" stroke-linecap="round" d="M 8613,3830 C 8398,3722 8360,3988 8360,3988"/>
         <path fill="rgb(0,0,0)" fill-opacity="0.31" stroke="rgb(255,255,255)" stroke-opacity="0.31" d="M 8294,2890 C 8404,2891 8505,2976 8531,3081 8480,3048 8415,3027 8345,3027 8204,3027 8086,3109 8051,3219 7996,3072 8122,2889 8281,2890 8286,2890 8290,2890 8294,2890 L 8294,2890 Z"/>
        </g>
       </g>
      </g>
      <g class="Graphic">
       <g id="id8">
        <rect class="BoundingBox" stroke="none" fill="none" x="8700" y="1000" width="2031" height="2001"/>
        <defs>
         <clipPath id="clip_path_6" clipPathUnits="userSpaceOnUse">
          <path d="M 8700,1000 L 10730,1000 10730,3000 8700,3000 8700,1000 Z"/>
         </clipPath>
        </defs>
        <g clip-path="url(#clip_path_6)">
         <path fill="rgb(182,204,221)" stroke="none" d="M 10095,1319 C 10084,1176 9616,794 9206,1180 8796,1566 8761,1385 8722,1392 8684,1400 8761,1484 8869,1470 9136,1435 9314,1103 9562,1107 9811,1110 9944,1327 9944,1327 L 10095,1319 10095,1319 Z"/>
         <path fill="none" stroke="rgb(0,0,0)" stroke-width="25" stroke-linejoin="miter" d="M 10095,1319 C 10084,1176 9616,794 9206,1180 8796,1566 8761,1385 8722,1392 8684,1400 8761,1484 8869,1470 9136,1435 9314,1103 9562,1107 9811,1110 9944,1327 9944,1327 L 10095,1319 Z"/>
         <path fill="rgb(0,0,0)" fill-opacity="0.31" stroke="rgb(255,255,255)" stroke-opacity="0.31" d="M 9561,1069 C 9450,1070 9330,1114 9215,1229 9110,1334 9032,1395 8974,1429 L 8974,1441 C 9186,1351 9348,1103 9561,1107 9811,1111 9944,1327 9944,1327 L 10002,1324 C 9957,1223 9776,1066 9561,1069 L 9561,1069 Z"/>
         <path fill="rgb(182,204,221)" stroke="none" d="M 10648,1929 C 10648,2279 10268,2922 10014,2922 9752,2922 9380,2279 9380,1929 9380,1580 9664,1296 10014,1296 10364,1296 10648,1580 10648,1929 L 10648,1929 Z"/>
         <path fill="none" stroke="rgb(0,0,0)" stroke-width="25" stroke-linejoin="miter" stroke-linecap="round" d="M 10648,1929 C 10648,2279 10268,2922 10014,2922 9752,2922 9380,2279 9380,1929 9380,1580 9664,1296 10014,1296 10364,1296 10648,1580 10648,1929 Z"/>
         <path fill="rgb(0,0,0)" fill-opacity="0.31" stroke="rgb(255,255,255)" stroke-opacity="0.31" d="M 10640,1826 C 10641,1844 10642,1862 10642,1880 10642,2230 10262,2873 10008,2873 9769,2873 9438,2338 9382,1979 9413,2336 9764,2922 10014,2922 10268,2922 10648,2279 10648,1929 10648,1894 10645,1860 10640,1826 L 10640,1826 Z"/>
         <path fill="rgb(182,204,221)" stroke="none" d="M 10455,2430 C 10602,2415 10718,2291 10718,2140 10718,1979 10587,1848 10426,1848 10265,1848 10134,1979 10134,2140 10134,2151 10134,2162 10136,2173 Z"/>
         <path fill="none" stroke="rgb(0,0,0)" stroke-width="25" stroke-linejoin="miter" stroke-linecap="round" d="M 10455,2430 C 10602,2415 10718,2291 10718,2140 10718,1979 10587,1848 10426,1848 10265,1848 10134,1979 10134,2140 10134,2151 10134,2162 10136,2173"/>
         <path fill="rgb(182,204,221)" stroke="none" d="M 9872,2177 C 9874,2165 9875,2152 9875,2140 9875,1979 9744,1848 9583,1848 9422,1848 9291,1979 9291,2140 9291,2295 9412,2422 9565,2431 Z"/>
         <path fill="none" stroke="rgb(0,0,0)" stroke-width="25" stroke-linejoin="miter" stroke-linecap="round" d="M 9872,2177 C 9874,2165 9875,2152 9875,2140 9875,1979 9744,1848 9583,1848 9422,1848 9291,1979 9291,2140 9291,2295 9412,2422 9565,2431"/>
         <path fill="rgb(0,0,0)" stroke="none" d="M 10084,2789 C 10084,2827 10039,2872 10016,2872 9990,2872 9948,2827 9948,2789 9948,2752 9978,2756 10016,2756 10054,2756 10084,2752 10084,2789 L 10084,2789 Z"/>
         <path fill="rgb(0,0,0)" stroke="none" d="M 9879,2538 C 9879,2573 9857,2601 9830,2601 9804,2601 9782,2573 9782,2538 9782,2503 9804,2474 9830,2474 9857,2474 9879,2503 9879,2538 L 9879,2538 Z"/>
         <path fill="none" stroke="rgb(0,0,0)" stroke-width="12" stroke-linejoin="miter" stroke-linecap="round" d="M 9879,2538 C 9879,2573 9857,2601 9830,2601 9804,2601 9782,2573 9782,2538 9782,2503 9804,2474 9830,2474 9857,2474 9879,2503 9879,2538 Z"/>
         <path fill="rgb(0,0,0)" stroke="none" d="M 10227,2538 C 10227,2573 10205,2601 10178,2601 10152,2601 10130,2573 10130,2538 10130,2503 10152,2474 10178,2474 10205,2474 10227,2503 10227,2538 L 10227,2538 Z"/>
         <path fill="none" stroke="rgb(0,0,0)" stroke-width="12" stroke-linejoin="miter" stroke-linecap="round" d="M 10227,2538 C 10227,2573 10205,2601 10178,2601 10152,2601 10130,2573 10130,2538 10130,2503 10152,2474 10178,2474 10205,2474 10227,2503 10227,2538 Z"/>
         <path fill="rgb(255,255,255)" stroke="none" d="M 9850,2523 C 9850,2535 9844,2545 9836,2545 9829,2545 9823,2535 9823,2523 9823,2511 9829,2501 9836,2501 9844,2501 9850,2511 9850,2523 L 9850,2523 9850,2523 Z"/>
         <path fill="rgb(255,255,255)" stroke="none" d="M 10188,2529 C 10188,2541 10182,2551 10174,2551 10167,2551 10161,2541 10161,2529 10161,2517 10167,2507 10174,2507 10182,2507 10188,2517 10188,2529 L 10188,2529 10188,2529 Z"/>
         <path fill="rgb(0,0,0)" fill-opacity="0.31" stroke="rgb(255,255,255)" stroke-opacity="0.31" d="M 10427,1890 C 10317,1891 10215,1976 10189,2081 10241,2048 10305,2027 10375,2027 10516,2027 10635,2109 10670,2219 10725,2072 10599,1889 10439,1890 10435,1890 10431,1890 10427,1890 L 10427,1890 Z"/>
         <path fill="none" stroke="rgb(0,0,0)" stroke-width="24" stroke-linejoin="miter" stroke-linecap="round" d="M 10142,2754 C 10422,2624 10551,2743 10551,2743"/>
         <path fill="none" stroke="rgb(0,0,0)" stroke-width="24" stroke-linejoin="miter" stroke-linecap="round" d="M 10115,2803 C 10320,2673 10497,2885 10497,2885"/>
         <path fill="none" stroke="rgb(0,0,0)" stroke-width="24" stroke-linejoin="miter" stroke-linecap="round" d="M 10115,2830 C 10330,2722 10368,2988 10368,2988"/>
         <path fill="none" stroke="rgb(0,0,0)" stroke-width="24" stroke-linejoin="miter" stroke-linecap="round" d="M 9886,2754 C 9606,2624 9477,2743 9477,2743"/>
         <path fill="none" stroke="rgb(0,0,0)" stroke-width="24" stroke-linejoin="miter" stroke-linecap="round" d="M 9913,2803 C 9708,2673 9531,2885 9531,2885"/>
         <path fill="none" stroke="rgb(0,0,0)" stroke-width="24" stroke-linejoin="miter" stroke-linecap="round" d="M 9913,2830 C 9698,2722 9660,2988 9660,2988"/>
         <path fill="rgb(0,0,0)" fill-opacity="0.31" stroke="rgb(255,255,255)" stroke-opacity="0.31" d="M 9594,1890 C 9704,1891 9805,1976 9831,2081 9780,2048 9715,2027 9645,2027 9504,2027 9386,2109 9351,2219 9296,2072 9422,1889 9581,1890 9586,1890 9590,1890 9594,1890 L 9594,1890 Z"/>
        </g>
       </g>
      </g>
      <g class="Graphic">
       <g id="id9">
        <rect class="BoundingBox" stroke="none" fill="none" x="10600" y="2000" width="2031" height="2001"/>
        <defs>
         <clipPath id="clip_path_7" clipPathUnits="userSpaceOnUse">
          <path d="M 10600,2000 L 12630,2000 12630,4000 10600,4000 10600,2000 Z"/>
         </clipPath>
        </defs>
        <g clip-path="url(#clip_path_7)">
         <path fill="rgb(182,204,221)" stroke="none" d="M 11995,2319 C 11984,2176 11516,1794 11106,2180 10696,2566 10661,2385 10622,2392 10584,2400 10661,2484 10769,2470 11036,2435 11214,2103 11462,2107 11711,2110 11844,2327 11844,2327 L 11995,2319 11995,2319 Z"/>
         <path fill="none" stroke="rgb(0,0,0)" stroke-width="25" stroke-linejoin="miter" d="M 11995,2319 C 11984,2176 11516,1794 11106,2180 10696,2566 10661,2385 10622,2392 10584,2400 10661,2484 10769,2470 11036,2435 11214,2103 11462,2107 11711,2110 11844,2327 11844,2327 L 11995,2319 Z"/>
         <path fill="rgb(0,0,0)" fill-opacity="0.31" stroke="rgb(255,255,255)" stroke-opacity="0.31" d="M 11461,2069 C 11350,2070 11230,2114 11115,2229 11010,2334 10932,2395 10874,2429 L 10874,2441 C 11086,2351 11248,2103 11461,2107 11711,2111 11844,2327 11844,2327 L 11902,2324 C 11857,2223 11676,2066 11461,2069 L 11461,2069 Z"/>
         <path fill="rgb(182,204,221)" stroke="none" d="M 12548,2929 C 12548,3279 12168,3922 11914,3922 11652,3922 11280,3279 11280,2929 11280,2580 11564,2296 11914,2296 12264,2296 12548,2580 12548,2929 L 12548,2929 Z"/>
         <path fill="none" stroke="rgb(0,0,0)" stroke-width="25" stroke-linejoin="miter" stroke-linecap="round" d="M 12548,2929 C 12548,3279 12168,3922 11914,3922 11652,3922 11280,3279 11280,2929 11280,2580 11564,2296 11914,2296 12264,2296 12548,2580 12548,2929 Z"/>
         <path fill="rgb(0,0,0)" fill-opacity="0.31" stroke="rgb(255,255,255)" stroke-opacity="0.31" d="M 12540,2826 C 12541,2844 12542,2862 12542,2880 12542,3230 12162,3873 11908,3873 11669,3873 11338,3338 11282,2979 11313,3336 11664,3922 11914,3922 12168,3922 12548,3279 12548,2929 12548,2894 12545,2860 12540,2826 L 12540,2826 Z"/>
         <path fill="rgb(182,204,221)" stroke="none" d="M 12355,3430 C 12502,3415 12618,3291 12618,3140 12618,2979 12487,2848 12326,2848 12165,2848 12034,2979 12034,3140 12034,3151 12034,3162 12036,3173 Z"/>
         <path fill="none" stroke="rgb(0,0,0)" stroke-width="25" stroke-linejoin="miter" stroke-linecap="round" d="M 12355,3430 C 12502,3415 12618,3291 12618,3140 12618,2979 12487,2848 12326,2848 12165,2848 12034,2979 12034,3140 12034,3151 12034,3162 12036,3173"/>
         <path fill="rgb(182,204,221)" stroke="none" d="M 11772,3177 C 11774,3165 11775,3152 11775,3140 11775,2979 11644,2848 11483,2848 11322,2848 11191,2979 11191,3140 11191,3295 11312,3422 11465,3431 Z"/>
         <path fill="none" stroke="rgb(0,0,0)" stroke-width="25" stroke-linejoin="miter" stroke-linecap="round" d="M 11772,3177 C 11774,3165 11775,3152 11775,3140 11775,2979 11644,2848 11483,2848 11322,2848 11191,2979 11191,3140 11191,3295 11312,3422 11465,3431"/>
         <path fill="rgb(0,0,0)" stroke="none" d="M 11984,3789 C 11984,3827 11939,3872 11916,3872 11890,3872 11848,3827 11848,3789 11848,3752 11878,3756 11916,3756 11954,3756 11984,3752 11984,3789 L 11984,3789 Z"/>
         <path fill="rgb(0,0,0)" stroke="none" d="M 11779,3538 C 11779,3573 11757,3601 11730,3601 11704,3601 11682,3573 11682,3538 11682,3503 11704,3474 11730,3474 11757,3474 11779,3503 11779,3538 L 11779,3538 Z"/>
         <path fill="none" stroke="rgb(0,0,0)" stroke-width="12" stroke-linejoin="miter" stroke-linecap="round" d="M 11779,3538 C 11779,3573 11757,3601 11730,3601 11704,3601 11682,3573 11682,3538 11682,3503 11704,3474 11730,3474 11757,3474 11779,3503 11779,3538 Z"/>
         <path fill="rgb(0,0,0)" stroke="none" d="M 12127,3538 C 12127,3573 12105,3601 12078,3601 12052,3601 12030,3573 12030,3538 12030,3503 12052,3474 12078,3474 12105,3474 12127,3503 12127,3538 L 12127,3538 Z"/>
         <path fill="none" stroke="rgb(0,0,0)" stroke-width="12" stroke-linejoin="miter" stroke-linecap="round" d="M 12127,3538 C 12127,3573 12105,3601 12078,3601 12052,3601 12030,3573 12030,3538 12030,3503 12052,3474 12078,3474 12105,3474 12127,3503 12127,3538 Z"/>
         <path fill="rgb(255,255,255)" stroke="none" d="M 11750,3523 C 11750,3535 11744,3545 11736,3545 11729,3545 11723,3535 11723,3523 11723,3511 11729,3501 11736,3501 11744,3501 11750,3511 11750,3523 L 11750,3523 11750,3523 Z"/>
         <path fill="rgb(255,255,255)" stroke="none" d="M 12088,3529 C 12088,3541 12082,3551 12074,3551 12067,3551 12061,3541 12061,3529 12061,3517 12067,3507 12074,3507 12082,3507 12088,3517 12088,3529 L 12088,3529 12088,3529 Z"/>
         <path fill="rgb(0,0,0)" fill-opacity="0.31" stroke="rgb(255,255,255)" stroke-opacity="0.31" d="M 12327,2890 C 12217,2891 12115,2976 12089,3081 12141,3048 12205,3027 12275,3027 12416,3027 12535,3109 12570,3219 12625,3072 12499,2889 12339,2890 12335,2890 12331,2890 12327,2890 L 12327,2890 Z"/>
         <path fill="none" stroke="rgb(0,0,0)" stroke-width="24" stroke-linejoin="miter" stroke-linecap="round" d="M 12042,3754 C 12322,3624 12451,3743 12451,3743"/>
         <path fill="none" stroke="rgb(0,0,0)" stroke-width="24" stroke-linejoin="miter" stroke-linecap="round" d="M 12015,3803 C 12220,3673 12397,3885 12397,3885"/>
         <path fill="none" stroke="rgb(0,0,0)" stroke-width="24" stroke-linejoin="miter" stroke-linecap="round" d="M 12015,3830 C 12230,3722 12268,3988 12268,3988"/>
         <path fill="none" stroke="rgb(0,0,0)" stroke-width="24" stroke-linejoin="miter" stroke-linecap="round" d="M 11786,3754 C 11506,3624 11377,3743 11377,3743"/>
         <path fill="none" stroke="rgb(0,0,0)" stroke-width="24" stroke-linejoin="miter" stroke-linecap="round" d="M 11813,3803 C 11608,3673 11431,3885 11431,3885"/>
         <path fill="none" stroke="rgb(0,0,0)" stroke-width="24" stroke-linejoin="miter" stroke-linecap="round" d="M 11813,3830 C 11598,3722 11560,3988 11560,3988"/>
         <path fill="rgb(0,0,0)" fill-opacity="0.31" stroke="rgb(255,255,255)" stroke-opacity="0.31" d="M 11494,2890 C 11604,2891 11705,2976 11731,3081 11680,3048 11615,3027 11545,3027 11404,3027 11286,3109 11251,3219 11196,3072 11322,2889 11481,2890 11486,2890 11490,2890 11494,2890 L 11494,2890 Z"/>
        </g>
       </g>
      </g>
      <g class="Graphic">
       <g id="id10">
        <rect class="BoundingBox" stroke="none" fill="none" x="11900" y="1000" width="2031" height="2001"/>
        <defs>
         <clipPath id="clip_path_8" clipPathUnits="userSpaceOnUse">
          <path d="M 11900,1000 L 13930,1000 13930,3000 11900,3000 11900,1000 Z"/>
         </clipPath>
        </defs>
        <g clip-path="url(#clip_path_8)">
         <path fill="rgb(182,204,221)" stroke="none" d="M 13295,1319 C 13284,1176 12816,794 12406,1180 11996,1566 11961,1385 11922,1392 11884,1400 11961,1484 12069,1470 12336,1435 12514,1103 12762,1107 13011,1110 13144,1327 13144,1327 L 13295,1319 13295,1319 Z"/>
         <path fill="none" stroke="rgb(0,0,0)" stroke-width="25" stroke-linejoin="miter" d="M 13295,1319 C 13284,1176 12816,794 12406,1180 11996,1566 11961,1385 11922,1392 11884,1400 11961,1484 12069,1470 12336,1435 12514,1103 12762,1107 13011,1110 13144,1327 13144,1327 L 13295,1319 Z"/>
         <path fill="rgb(0,0,0)" fill-opacity="0.31" stroke="rgb(255,255,255)" stroke-opacity="0.31" d="M 12761,1069 C 12650,1070 12530,1114 12415,1229 12310,1334 12232,1395 12174,1429 L 12174,1441 C 12386,1351 12548,1103 12761,1107 13011,1111 13144,1327 13144,1327 L 13202,1324 C 13157,1223 12976,1066 12761,1069 L 12761,1069 Z"/>
         <path fill="rgb(182,204,221)" stroke="none" d="M 13848,1929 C 13848,2279 13468,2922 13214,2922 12952,2922 12580,2279 12580,1929 12580,1580 12864,1296 13214,1296 13564,1296 13848,1580 13848,1929 L 13848,1929 Z"/>
         <path fill="none" stroke="rgb(0,0,0)" stroke-width="25" stroke-linejoin="miter" stroke-linecap="round" d="M 13848,1929 C 13848,2279 13468,2922 13214,2922 12952,2922 12580,2279 12580,1929 12580,1580 12864,1296 13214,1296 13564,1296 13848,1580 13848,1929 Z"/>
         <path fill="rgb(0,0,0)" fill-opacity="0.31" stroke="rgb(255,255,255)" stroke-opacity="0.31" d="M 13840,1826 C 13841,1844 13842,1862 13842,1880 13842,2230 13462,2873 13208,2873 12969,2873 12638,2338 12582,1979 12613,2336 12964,2922 13214,2922 13468,2922 13848,2279 13848,1929 13848,1894 13845,1860 13840,1826 L 13840,1826 Z"/>
         <path fill="rgb(182,204,221)" stroke="none" d="M 13655,2430 C 13802,2415 13918,2291 13918,2140 13918,1979 13787,1848 13626,1848 13465,1848 13334,1979 13334,2140 13334,2151 13334,2162 13336,2173 Z"/>
         <path fill="none" stroke="rgb(0,0,0)" stroke-width="25" stroke-linejoin="miter" stroke-linecap="round" d="M 13655,2430 C 13802,2415 13918,2291 13918,2140 13918,1979 13787,1848 13626,1848 13465,1848 13334,1979 13334,2140 13334,2151 13334,2162 13336,2173"/>
         <path fill="rgb(182,204,221)" stroke="none" d="M 13072,2177 C 13074,2165 13075,2152 13075,2140 13075,1979 12944,1848 12783,1848 12622,1848 12491,1979 12491,2140 12491,2295 12612,2422 12765,2431 Z"/>
         <path fill="none" stroke="rgb(0,0,0)" stroke-width="25" stroke-linejoin="miter" stroke-linecap="round" d="M 13072,2177 C 13074,2165 13075,2152 13075,2140 13075,1979 12944,1848 12783,1848 12622,1848 12491,1979 12491,2140 12491,2295 12612,2422 12765,2431"/>
         <path fill="rgb(0,0,0)" stroke="none" d="M 13284,2789 C 13284,2827 13239,2872 13216,2872 13190,2872 13148,2827 13148,2789 13148,2752 13178,2756 13216,2756 13254,2756 13284,2752 13284,2789 L 13284,2789 Z"/>
         <path fill="rgb(0,0,0)" stroke="none" d="M 13079,2538 C 13079,2573 13057,2601 13030,2601 13004,2601 12982,2573 12982,2538 12982,2503 13004,2474 13030,2474 13057,2474 13079,2503 13079,2538 L 13079,2538 Z"/>
         <path fill="none" stroke="rgb(0,0,0)" stroke-width="12" stroke-linejoin="miter" stroke-linecap="round" d="M 13079,2538 C 13079,2573 13057,2601 13030,2601 13004,2601 12982,2573 12982,2538 12982,2503 13004,2474 13030,2474 13057,2474 13079,2503 13079,2538 Z"/>
         <path fill="rgb(0,0,0)" stroke="none" d="M 13427,2538 C 13427,2573 13405,2601 13378,2601 13352,2601 13330,2573 13330,2538 13330,2503 13352,2474 13378,2474 13405,2474 13427,2503 13427,2538 L 13427,2538 Z"/>
         <path fill="none" stroke="rgb(0,0,0)" stroke-width="12" stroke-linejoin="miter" stroke-linecap="round" d="M 13427,2538 C 13427,2573 13405,2601 13378,2601 13352,2601 13330,2573 13330,2538 13330,2503 13352,2474 13378,2474 13405,2474 13427,2503 13427,2538 Z"/>
         <path fill="rgb(255,255,255)" stroke="none" d="M 13050,2523 C 13050,2535 13044,2545 13036,2545 13029,2545 13023,2535 13023,2523 13023,2511 13029,2501 13036,2501 13044,2501 13050,2511 13050,2523 L 13050,2523 13050,2523 Z"/>
         <path fill="rgb(255,255,255)" stroke="none" d="M 13388,2529 C 13388,2541 13382,2551 13374,2551 13367,2551 13361,2541 13361,2529 13361,2517 13367,2507 13374,2507 13382,2507 13388,2517 13388,2529 L 13388,2529 13388,2529 Z"/>
         <path fill="rgb(0,0,0)" fill-opacity="0.31" stroke="rgb(255,255,255)" stroke-opacity="0.31" d="M 13627,1890 C 13517,1891 13415,1976 13389,2081 13441,2048 13505,2027 13575,2027 13716,2027 13835,2109 13870,2219 13925,2072 13799,1889 13639,1890 13635,1890 13631,1890 13627,1890 L 13627,1890 Z"/>
         <path fill="none" stroke="rgb(0,0,0)" stroke-width="24" stroke-linejoin="miter" stroke-linecap="round" d="M 13342,2754 C 13622,2624 13751,2743 13751,2743"/>
         <path fill="none" stroke="rgb(0,0,0)" stroke-width="24" stroke-linejoin="miter" stroke-linecap="round" d="M 13315,2803 C 13520,2673 13697,2885 13697,2885"/>
         <path fill="none" stroke="rgb(0,0,0)" stroke-width="24" stroke-linejoin="miter" stroke-linecap="round" d="M 13315,2830 C 13530,2722 13568,2988 13568,2988"/>
         <path fill="none" stroke="rgb(0,0,0)" stroke-width="24" stroke-linejoin="miter" stroke-linecap="round" d="M 13086,2754 C 12806,2624 12677,2743 12677,2743"/>
         <path fill="none" stroke="rgb(0,0,0)" stroke-width="24" stroke-linejoin="miter" stroke-linecap="round" d="M 13113,2803 C 12908,2673 12731,2885 12731,2885"/>
         <path fill="none" stroke="rgb(0,0,0)" stroke-width="24" stroke-linejoin="miter" stroke-linecap="round" d="M 13113,2830 C 12898,2722 12860,2988 12860,2988"/>
         <path fill="rgb(0,0,0)" fill-opacity="0.31" stroke="rgb(255,255,255)" stroke-opacity="0.31" d="M 12794,1890 C 12904,1891 13005,1976 13031,2081 12980,2048 12915,2027 12845,2027 12704,2027 12586,2109 12551,2219 12496,2072 12622,1889 12781,1890 12786,1890 12790,1890 12794,1890 L 12794,1890 Z"/>
        </g>
       </g>
      </g>
      <g class="Graphic">
       <g id="id11">
        <rect class="BoundingBox" stroke="none" fill="none" x="1010" y="3000" width="991" height="1001"/>
        <defs>
         <clipPath id="clip_path_9" clipPathUnits="userSpaceOnUse">
          <path d="M 1010,3000 L 2000,3000 2000,4000 1010,4000 1010,3000 Z"/>
         </clipPath>
        </defs>
        <g clip-path="url(#clip_path_9)">
         <path fill="rgb(255,0,0)" stroke="none" d="M 1354,3489 C 1438,3499 1510,3429 1498,3345 1490,3287 1444,3241 1388,3234 1304,3223 1233,3293 1244,3378 1251,3436 1298,3483 1354,3489 Z"/>
         <path fill="rgb(255,0,0)" stroke="none" d="M 1174,3380 C 1185,3380 1192,3372 1192,3362 L 1192,3362 1192,3362 C 1192,3351 1185,3344 1174,3344 L 1156,3344 1028,3344 C 1018,3344 1010,3351 1010,3362 L 1010,3363 C 1010,3373 1018,3381 1028,3381 L 1156,3381 1174,3381 1174,3380 Z"/>
         <path fill="rgb(255,0,0)" stroke="none" d="M 1371,3183 L 1371,3183 C 1371,3183 1372,3183 1371,3183 1381,3183 1389,3175 1389,3165 L 1389,3147 1389,3018 C 1389,3008 1381,3000 1371,3000 L 1370,3000 C 1359,3000 1352,3008 1352,3018 L 1352,3147 1352,3165 C 1353,3175 1362,3183 1371,3183 L 1371,3183 Z"/>
         <path fill="rgb(255,0,0)" stroke="none" d="M 1498,3234 C 1506,3242 1517,3242 1524,3234 L 1537,3221 1626,3131 C 1633,3125 1633,3113 1626,3106 L 1626,3106 C 1620,3099 1608,3099 1601,3106 L 1511,3196 1498,3208 C 1490,3216 1490,3228 1498,3234 L 1498,3234 Z"/>
         <path fill="rgb(255,0,0)" stroke="none" d="M 1206,3501 L 1117,3591 C 1110,3597 1110,3609 1117,3616 L 1118,3618 C 1124,3624 1136,3624 1144,3618 L 1233,3528 1246,3515 C 1253,3508 1253,3497 1246,3489 1237,3481 1227,3481 1219,3488 L 1206,3501 Z"/>
         <path fill="rgb(255,0,0)" stroke="none" d="M 1206,3223 L 1219,3236 C 1226,3242 1237,3242 1245,3236 L 1245,3236 C 1251,3229 1253,3218 1245,3210 L 1232,3197 1142,3107 C 1136,3100 1124,3100 1117,3107 L 1115,3108 C 1109,3115 1109,3126 1115,3134 L 1206,3223 Z"/>
         <path fill="rgb(255,0,0)" stroke="none" d="M 1992,3048 C 1982,3037 1964,3037 1954,3048 L 1659,3344 1587,3344 1569,3344 C 1558,3344 1551,3351 1551,3362 L 1551,3362 1551,3362 C 1551,3372 1558,3380 1569,3380 L 1587,3380 1621,3380 1517,3484 C 1511,3481 1503,3483 1498,3488 L 1498,3488 C 1493,3493 1492,3501 1494,3507 L 1390,3613 1390,3577 1390,3559 C 1390,3548 1382,3541 1372,3541 L 1372,3541 1372,3541 C 1362,3541 1354,3548 1354,3559 L 1354,3577 1354,3649 1049,3954 C 1038,3964 1038,3982 1049,3992 1054,3997 1061,4000 1068,4000 1074,4000 1082,3997 1087,3992 L 1991,3086 C 2003,3076 2003,3058 1992,3048 L 1992,3048 Z"/>
         <path fill="rgb(0,0,0)" stroke="none" d="M 1992,3048 C 1982,3037 1964,3037 1954,3048 L 1049,3954 C 1038,3964 1038,3982 1049,3992 1054,3997 1061,4000 1068,4000 1074,4000 1082,3997 1087,3992 L 1991,3086 C 2003,3076 2003,3058 1992,3048 L 1992,3048 Z"/>
         <path fill="rgb(0,0,255)" stroke="none" d="M 1850,3542 C 1809,3515 1757,3502 1703,3511 1608,3525 1537,3600 1526,3696 1512,3824 1611,3932 1736,3932 1778,3932 1817,3919 1850,3898 1860,3892 1858,3875 1846,3871 1782,3851 1736,3792 1736,3721 1736,3649 1782,3589 1846,3569 1858,3565 1861,3548 1850,3542 Z"/>
        </g>
       </g>
      </g>
      <g class="Graphic">
       <g id="id12">
        <rect class="BoundingBox" stroke="none" fill="none" x="3710" y="800" width="991" height="1001"/>
        <defs>
         <clipPath id="clip_path_10" clipPathUnits="userSpaceOnUse">
          <path d="M 3710,800 L 4700,800 4700,1800 3710,1800 3710,800 Z"/>
         </clipPath>
        </defs>
        <g clip-path="url(#clip_path_10)">
         <path fill="rgb(255,0,0)" stroke="none" d="M 4054,1289 C 4138,1299 4210,1229 4198,1145 4190,1087 4144,1041 4088,1034 4004,1023 3933,1093 3944,1178 3951,1236 3998,1283 4054,1289 Z"/>
         <path fill="rgb(255,0,0)" stroke="none" d="M 3874,1180 C 3885,1180 3892,1172 3892,1162 L 3892,1162 3892,1162 C 3892,1151 3885,1144 3874,1144 L 3856,1144 3728,1144 C 3718,1144 3710,1151 3710,1162 L 3710,1163 C 3710,1173 3718,1181 3728,1181 L 3856,1181 3874,1181 3874,1180 Z"/>
         <path fill="rgb(255,0,0)" stroke="none" d="M 4071,983 L 4071,983 C 4071,983 4072,983 4071,983 4081,983 4089,975 4089,965 L 4089,947 4089,818 C 4089,808 4081,800 4071,800 L 4070,800 C 4059,800 4052,808 4052,818 L 4052,947 4052,965 C 4053,975 4062,983 4071,983 L 4071,983 Z"/>
         <path fill="rgb(255,0,0)" stroke="none" d="M 4198,1034 C 4206,1042 4217,1042 4224,1034 L 4237,1021 4326,931 C 4333,925 4333,913 4326,906 L 4326,906 C 4320,899 4308,899 4301,906 L 4211,996 4198,1008 C 4190,1016 4190,1028 4198,1034 L 4198,1034 Z"/>
         <path fill="rgb(255,0,0)" stroke="none" d="M 3906,1301 L 3817,1391 C 3810,1397 3810,1409 3817,1416 L 3818,1418 C 3824,1424 3836,1424 3844,1418 L 3933,1328 3946,1315 C 3953,1308 3953,1297 3946,1289 3937,1281 3927,1281 3919,1288 L 3906,1301 Z"/>
         <path fill="rgb(255,0,0)" stroke="none" d="M 3906,1023 L 3919,1036 C 3926,1042 3937,1042 3945,1036 L 3945,1036 C 3951,1029 3953,1018 3945,1010 L 3932,997 3842,907 C 3836,900 3824,900 3817,907 L 3815,908 C 3809,915 3809,926 3815,934 L 3906,1023 Z"/>
         <path fill="rgb(255,0,0)" stroke="none" d="M 4692,848 C 4682,837 4664,837 4654,848 L 4359,1144 4287,1144 4269,1144 C 4258,1144 4251,1151 4251,1162 L 4251,1162 4251,1162 C 4251,1172 4258,1180 4269,1180 L 4287,1180 4321,1180 4217,1284 C 4211,1281 4203,1283 4198,1288 L 4198,1288 C 4193,1293 4192,1301 4194,1307 L 4090,1413 4090,1377 4090,1359 C 4090,1348 4082,1341 4072,1341 L 4072,1341 4072,1341 C 4062,1341 4054,1348 4054,1359 L 4054,1377 4054,1449 3749,1754 C 3738,1764 3738,1782 3749,1792 3754,1797 3761,1800 3768,1800 3774,1800 3782,1797 3787,1792 L 4691,886 C 4703,876 4703,858 4692,848 L 4692,848 Z"/>
         <path fill="rgb(0,0,0)" stroke="none" d="M 4692,848 C 4682,837 4664,837 4654,848 L 3749,1754 C 3738,1764 3738,1782 3749,1792 3754,1797 3761,1800 3768,1800 3774,1800 3782,1797 3787,1792 L 4691,886 C 4703,876 4703,858 4692,848 L 4692,848 Z"/>
         <path fill="rgb(0,0,255)" stroke="none" d="M 4550,1342 C 4509,1315 4457,1302 4403,1311 4308,1325 4237,1400 4226,1496 4212,1624 4311,1732 4436,1732 4478,1732 4517,1719 4550,1698 4560,1692 4558,1675 4546,1671 4482,1651 4436,1592 4436,1521 4436,1449 4482,1389 4546,1369 4558,1365 4561,1348 4550,1342 Z"/>
        </g>
       </g>
      </g>
      <g class="Graphic">
       <g id="id13">
        <rect class="BoundingBox" stroke="none" fill="none" x="4210" y="3000" width="991" height="1001"/>
        <defs>
         <clipPath id="clip_path_11" clipPathUnits="userSpaceOnUse">
          <path d="M 4210,3000 L 5200,3000 5200,4000 4210,4000 4210,3000 Z"/>
         </clipPath>
        </defs>
        <g clip-path="url(#clip_path_11)">
         <path fill="rgb(255,0,0)" stroke="none" d="M 4554,3489 C 4638,3499 4710,3429 4698,3345 4690,3287 4644,3241 4588,3234 4504,3223 4433,3293 4444,3378 4451,3436 4498,3483 4554,3489 Z"/>
         <path fill="rgb(255,0,0)" stroke="none" d="M 4374,3380 C 4385,3380 4392,3372 4392,3362 L 4392,3362 4392,3362 C 4392,3351 4385,3344 4374,3344 L 4356,3344 4228,3344 C 4218,3344 4210,3351 4210,3362 L 4210,3363 C 4210,3373 4218,3381 4228,3381 L 4356,3381 4374,3381 4374,3380 Z"/>
         <path fill="rgb(255,0,0)" stroke="none" d="M 4571,3183 L 4571,3183 C 4571,3183 4572,3183 4571,3183 4581,3183 4589,3175 4589,3165 L 4589,3147 4589,3018 C 4589,3008 4581,3000 4571,3000 L 4570,3000 C 4559,3000 4552,3008 4552,3018 L 4552,3147 4552,3165 C 4553,3175 4562,3183 4571,3183 L 4571,3183 Z"/>
         <path fill="rgb(255,0,0)" stroke="none" d="M 4698,3234 C 4706,3242 4717,3242 4724,3234 L 4737,3221 4826,3131 C 4833,3125 4833,3113 4826,3106 L 4826,3106 C 4820,3099 4808,3099 4801,3106 L 4711,3196 4698,3208 C 4690,3216 4690,3228 4698,3234 L 4698,3234 Z"/>
         <path fill="rgb(255,0,0)" stroke="none" d="M 4406,3501 L 4317,3591 C 4310,3597 4310,3609 4317,3616 L 4318,3618 C 4324,3624 4336,3624 4344,3618 L 4433,3528 4446,3515 C 4453,3508 4453,3497 4446,3489 4437,3481 4427,3481 4419,3488 L 4406,3501 Z"/>
         <path fill="rgb(255,0,0)" stroke="none" d="M 4406,3223 L 4419,3236 C 4426,3242 4437,3242 4445,3236 L 4445,3236 C 4451,3229 4453,3218 4445,3210 L 4432,3197 4342,3107 C 4336,3100 4324,3100 4317,3107 L 4315,3108 C 4309,3115 4309,3126 4315,3134 L 4406,3223 Z"/>
         <path fill="rgb(255,0,0)" stroke="none" d="M 5192,3048 C 5182,3037 5164,3037 5154,3048 L 4859,3344 4787,3344 4769,3344 C 4758,3344 4751,3351 4751,3362 L 4751,3362 4751,3362 C 4751,3372 4758,3380 4769,3380 L 4787,3380 4821,3380 4717,3484 C 4711,3481 4703,3483 4698,3488 L 4698,3488 C 4693,3493 4692,3501 4694,3507 L 4590,3613 4590,3577 4590,3559 C 4590,3548 4582,3541 4572,3541 L 4572,3541 4572,3541 C 4562,3541 4554,3548 4554,3559 L 4554,3577 4554,3649 4249,3954 C 4238,3964 4238,3982 4249,3992 4254,3997 4261,4000 4268,4000 4274,4000 4282,3997 4287,3992 L 5191,3086 C 5203,3076 5203,3058 5192,3048 L 5192,3048 Z"/>
         <path fill="rgb(0,0,0)" stroke="none" d="M 5192,3048 C 5182,3037 5164,3037 5154,3048 L 4249,3954 C 4238,3964 4238,3982 4249,3992 4254,3997 4261,4000 4268,4000 4274,4000 4282,3997 4287,3992 L 5191,3086 C 5203,3076 5203,3058 5192,3048 L 5192,3048 Z"/>
         <path fill="rgb(0,0,255)" stroke="none" d="M 5050,3542 C 5009,3515 4957,3502 4903,3511 4808,3525 4737,3600 4726,3696 4712,3824 4811,3932 4936,3932 4978,3932 5017,3919 5050,3898 5060,3892 5058,3875 5046,3871 4982,3851 4936,3792 4936,3721 4936,3649 4982,3589 5046,3569 5058,3565 5061,3548 5050,3542 Z"/>
        </g>
       </g>
      </g>
      <g class="Graphic">
       <g id="id14">
        <rect class="BoundingBox" stroke="none" fill="none" x="6910" y="800" width="991" height="1001"/>
        <defs>
         <clipPath id="clip_path_12" clipPathUnits="userSpaceOnUse">
          <path d="M 6910,800 L 7900,800 7900,1800 6910,1800 6910,800 Z"/>
         </clipPath>
        </defs>
        <g clip-path="url(#clip_path_12)">
         <path fill="rgb(255,0,0)" stroke="none" d="M 7254,1289 C 7338,1299 7410,1229 7398,1145 7390,1087 7344,1041 7288,1034 7204,1023 7133,1093 7144,1178 7151,1236 7198,1283 7254,1289 Z"/>
         <path fill="rgb(255,0,0)" stroke="none" d="M 7074,1180 C 7085,1180 7092,1172 7092,1162 L 7092,1162 7092,1162 C 7092,1151 7085,1144 7074,1144 L 7056,1144 6928,1144 C 6918,1144 6910,1151 6910,1162 L 6910,1163 C 6910,1173 6918,1181 6928,1181 L 7056,1181 7074,1181 7074,1180 Z"/>
         <path fill="rgb(255,0,0)" stroke="none" d="M 7271,983 L 7271,983 C 7271,983 7272,983 7271,983 7281,983 7289,975 7289,965 L 7289,947 7289,818 C 7289,808 7281,800 7271,800 L 7270,800 C 7259,800 7252,808 7252,818 L 7252,947 7252,965 C 7253,975 7262,983 7271,983 L 7271,983 Z"/>
         <path fill="rgb(255,0,0)" stroke="none" d="M 7398,1034 C 7406,1042 7417,1042 7424,1034 L 7437,1021 7526,931 C 7533,925 7533,913 7526,906 L 7526,906 C 7520,899 7508,899 7501,906 L 7411,996 7398,1008 C 7390,1016 7390,1028 7398,1034 L 7398,1034 Z"/>
         <path fill="rgb(255,0,0)" stroke="none" d="M 7106,1301 L 7017,1391 C 7010,1397 7010,1409 7017,1416 L 7018,1418 C 7024,1424 7036,1424 7044,1418 L 7133,1328 7146,1315 C 7153,1308 7153,1297 7146,1289 7137,1281 7127,1281 7119,1288 L 7106,1301 Z"/>
         <path fill="rgb(255,0,0)" stroke="none" d="M 7106,1023 L 7119,1036 C 7126,1042 7137,1042 7145,1036 L 7145,1036 C 7151,1029 7153,1018 7145,1010 L 7132,997 7042,907 C 7036,900 7024,900 7017,907 L 7015,908 C 7009,915 7009,926 7015,934 L 7106,1023 Z"/>
         <path fill="rgb(255,0,0)" stroke="none" d="M 7892,848 C 7882,837 7864,837 7854,848 L 7559,1144 7487,1144 7469,1144 C 7458,1144 7451,1151 7451,1162 L 7451,1162 7451,1162 C 7451,1172 7458,1180 7469,1180 L 7487,1180 7521,1180 7417,1284 C 7411,1281 7403,1283 7398,1288 L 7398,1288 C 7393,1293 7392,1301 7394,1307 L 7290,1413 7290,1377 7290,1359 C 7290,1348 7282,1341 7272,1341 L 7272,1341 7272,1341 C 7262,1341 7254,1348 7254,1359 L 7254,1377 7254,1449 6949,1754 C 6938,1764 6938,1782 6949,1792 6954,1797 6961,1800 6968,1800 6974,1800 6982,1797 6987,1792 L 7891,886 C 7903,876 7903,858 7892,848 L 7892,848 Z"/>
         <path fill="rgb(0,0,0)" stroke="none" d="M 7892,848 C 7882,837 7864,837 7854,848 L 6949,1754 C 6938,1764 6938,1782 6949,1792 6954,1797 6961,1800 6968,1800 6974,1800 6982,1797 6987,1792 L 7891,886 C 7903,876 7903,858 7892,848 L 7892,848 Z"/>
         <path fill="rgb(0,0,255)" stroke="none" d="M 7750,1342 C 7709,1315 7657,1302 7603,1311 7508,1325 7437,1400 7426,1496 7412,1624 7511,1732 7636,1732 7678,1732 7717,1719 7750,1698 7760,1692 7758,1675 7746,1671 7682,1651 7636,1592 7636,1521 7636,1449 7682,1389 7746,1369 7758,1365 7761,1348 7750,1342 Z"/>
        </g>
       </g>
      </g>
      <g class="Graphic">
       <g id="id15">
        <rect class="BoundingBox" stroke="none" fill="none" x="7410" y="3000" width="991" height="1001"/>
        <defs>
         <clipPath id="clip_path_13" clipPathUnits="userSpaceOnUse">
          <path d="M 7410,3000 L 8400,3000 8400,4000 7410,4000 7410,3000 Z"/>
         </clipPath>
        </defs>
        <g clip-path="url(#clip_path_13)">
         <path fill="rgb(255,0,0)" stroke="none" d="M 7754,3489 C 7838,3499 7910,3429 7898,3345 7890,3287 7844,3241 7788,3234 7704,3223 7633,3293 7644,3378 7651,3436 7698,3483 7754,3489 Z"/>
         <path fill="rgb(255,0,0)" stroke="none" d="M 7574,3380 C 7585,3380 7592,3372 7592,3362 L 7592,3362 7592,3362 C 7592,3351 7585,3344 7574,3344 L 7556,3344 7428,3344 C 7418,3344 7410,3351 7410,3362 L 7410,3363 C 7410,3373 7418,3381 7428,3381 L 7556,3381 7574,3381 7574,3380 Z"/>
         <path fill="rgb(255,0,0)" stroke="none" d="M 7771,3183 L 7771,3183 C 7771,3183 7772,3183 7771,3183 7781,3183 7789,3175 7789,3165 L 7789,3147 7789,3018 C 7789,3008 7781,3000 7771,3000 L 7770,3000 C 7759,3000 7752,3008 7752,3018 L 7752,3147 7752,3165 C 7753,3175 7762,3183 7771,3183 L 7771,3183 Z"/>
         <path fill="rgb(255,0,0)" stroke="none" d="M 7898,3234 C 7906,3242 7917,3242 7924,3234 L 7937,3221 8026,3131 C 8033,3125 8033,3113 8026,3106 L 8026,3106 C 8020,3099 8008,3099 8001,3106 L 7911,3196 7898,3208 C 7890,3216 7890,3228 7898,3234 L 7898,3234 Z"/>
         <path fill="rgb(255,0,0)" stroke="none" d="M 7606,3501 L 7517,3591 C 7510,3597 7510,3609 7517,3616 L 7518,3618 C 7524,3624 7536,3624 7544,3618 L 7633,3528 7646,3515 C 7653,3508 7653,3497 7646,3489 7637,3481 7627,3481 7619,3488 L 7606,3501 Z"/>
         <path fill="rgb(255,0,0)" stroke="none" d="M 7606,3223 L 7619,3236 C 7626,3242 7637,3242 7645,3236 L 7645,3236 C 7651,3229 7653,3218 7645,3210 L 7632,3197 7542,3107 C 7536,3100 7524,3100 7517,3107 L 7515,3108 C 7509,3115 7509,3126 7515,3134 L 7606,3223 Z"/>
         <path fill="rgb(255,0,0)" stroke="none" d="M 8392,3048 C 8382,3037 8364,3037 8354,3048 L 8059,3344 7987,3344 7969,3344 C 7958,3344 7951,3351 7951,3362 L 7951,3362 7951,3362 C 7951,3372 7958,3380 7969,3380 L 7987,3380 8021,3380 7917,3484 C 7911,3481 7903,3483 7898,3488 L 7898,3488 C 7893,3493 7892,3501 7894,3507 L 7790,3613 7790,3577 7790,3559 C 7790,3548 7782,3541 7772,3541 L 7772,3541 7772,3541 C 7762,3541 7754,3548 7754,3559 L 7754,3577 7754,3649 7449,3954 C 7438,3964 7438,3982 7449,3992 7454,3997 7461,4000 7468,4000 7474,4000 7482,3997 7487,3992 L 8391,3086 C 8403,3076 8403,3058 8392,3048 L 8392,3048 Z"/>
         <path fill="rgb(0,0,0)" stroke="none" d="M 8392,3048 C 8382,3037 8364,3037 8354,3048 L 7449,3954 C 7438,3964 7438,3982 7449,3992 7454,3997 7461,4000 7468,4000 7474,4000 7482,3997 7487,3992 L 8391,3086 C 8403,3076 8403,3058 8392,3048 L 8392,3048 Z"/>
         <path fill="rgb(0,0,255)" stroke="none" d="M 8250,3542 C 8209,3515 8157,3502 8103,3511 8008,3525 7937,3600 7926,3696 7912,3824 8011,3932 8136,3932 8178,3932 8217,3919 8250,3898 8260,3892 8258,3875 8246,3871 8182,3851 8136,3792 8136,3721 8136,3649 8182,3589 8246,3569 8258,3565 8261,3548 8250,3542 Z"/>
        </g>
       </g>
      </g>
      <g class="Graphic">
       <g id="id16">
        <rect class="BoundingBox" stroke="none" fill="none" x="10110" y="800" width="991" height="1001"/>
        <defs>
         <clipPath id="clip_path_14" clipPathUnits="userSpaceOnUse">
          <path d="M 10110,800 L 11100,800 11100,1800 10110,1800 10110,800 Z"/>
         </clipPath>
        </defs>
        <g clip-path="url(#clip_path_14)">
         <path fill="rgb(255,0,0)" stroke="none" d="M 10454,1289 C 10538,1299 10610,1229 10598,1145 10590,1087 10544,1041 10488,1034 10404,1023 10333,1093 10344,1178 10351,1236 10398,1283 10454,1289 Z"/>
         <path fill="rgb(255,0,0)" stroke="none" d="M 10274,1180 C 10285,1180 10292,1172 10292,1162 L 10292,1162 10292,1162 C 10292,1151 10285,1144 10274,1144 L 10256,1144 10128,1144 C 10118,1144 10110,1151 10110,1162 L 10110,1163 C 10110,1173 10118,1181 10128,1181 L 10256,1181 10274,1181 10274,1180 Z"/>
         <path fill="rgb(255,0,0)" stroke="none" d="M 10471,983 L 10471,983 C 10471,983 10472,983 10471,983 10481,983 10489,975 10489,965 L 10489,947 10489,818 C 10489,808 10481,800 10471,800 L 10470,800 C 10459,800 10452,808 10452,818 L 10452,947 10452,965 C 10453,975 10462,983 10471,983 L 10471,983 Z"/>
         <path fill="rgb(255,0,0)" stroke="none" d="M 10598,1034 C 10606,1042 10617,1042 10624,1034 L 10637,1021 10726,931 C 10733,925 10733,913 10726,906 L 10726,906 C 10720,899 10708,899 10701,906 L 10611,996 10598,1008 C 10590,1016 10590,1028 10598,1034 L 10598,1034 Z"/>
         <path fill="rgb(255,0,0)" stroke="none" d="M 10306,1301 L 10217,1391 C 10210,1397 10210,1409 10217,1416 L 10218,1418 C 10224,1424 10236,1424 10244,1418 L 10333,1328 10346,1315 C 10353,1308 10353,1297 10346,1289 10337,1281 10327,1281 10319,1288 L 10306,1301 Z"/>
         <path fill="rgb(255,0,0)" stroke="none" d="M 10306,1023 L 10319,1036 C 10326,1042 10337,1042 10345,1036 L 10345,1036 C 10351,1029 10353,1018 10345,1010 L 10332,997 10242,907 C 10236,900 10224,900 10217,907 L 10215,908 C 10209,915 10209,926 10215,934 L 10306,1023 Z"/>
         <path fill="rgb(255,0,0)" stroke="none" d="M 11092,848 C 11082,837 11064,837 11054,848 L 10759,1144 10687,1144 10669,1144 C 10658,1144 10651,1151 10651,1162 L 10651,1162 10651,1162 C 10651,1172 10658,1180 10669,1180 L 10687,1180 10721,1180 10617,1284 C 10611,1281 10603,1283 10598,1288 L 10598,1288 C 10593,1293 10592,1301 10594,1307 L 10490,1413 10490,1377 10490,1359 C 10490,1348 10482,1341 10472,1341 L 10472,1341 10472,1341 C 10462,1341 10454,1348 10454,1359 L 10454,1377 10454,1449 10149,1754 C 10138,1764 10138,1782 10149,1792 10154,1797 10161,1800 10168,1800 10174,1800 10182,1797 10187,1792 L 11091,886 C 11103,876 11103,858 11092,848 L 11092,848 Z"/>
         <path fill="rgb(0,0,0)" stroke="none" d="M 11092,848 C 11082,837 11064,837 11054,848 L 10149,1754 C 10138,1764 10138,1782 10149,1792 10154,1797 10161,1800 10168,1800 10174,1800 10182,1797 10187,1792 L 11091,886 C 11103,876 11103,858 11092,848 L 11092,848 Z"/>
         <path fill="rgb(0,0,255)" stroke="none" d="M 10950,1342 C 10909,1315 10857,1302 10803,1311 10708,1325 10637,1400 10626,1496 10612,1624 10711,1732 10836,1732 10878,1732 10917,1719 10950,1698 10960,1692 10958,1675 10946,1671 10882,1651 10836,1592 10836,1521 10836,1449 10882,1389 10946,1369 10958,1365 10961,1348 10950,1342 Z"/>
        </g>
       </g>
      </g>
      <g class="Graphic">
       <g id="id17">
        <rect class="BoundingBox" stroke="none" fill="none" x="10610" y="3000" width="991" height="1001"/>
        <defs>
         <clipPath id="clip_path_15" clipPathUnits="userSpaceOnUse">
          <path d="M 10610,3000 L 11600,3000 11600,4000 10610,4000 10610,3000 Z"/>
         </clipPath>
        </defs>
        <g clip-path="url(#clip_path_15)">
         <path fill="rgb(255,0,0)" stroke="none" d="M 10954,3489 C 11038,3499 11110,3429 11098,3345 11090,3287 11044,3241 10988,3234 10904,3223 10833,3293 10844,3378 10851,3436 10898,3483 10954,3489 Z"/>
         <path fill="rgb(255,0,0)" stroke="none" d="M 10774,3380 C 10785,3380 10792,3372 10792,3362 L 10792,3362 10792,3362 C 10792,3351 10785,3344 10774,3344 L 10756,3344 10628,3344 C 10618,3344 10610,3351 10610,3362 L 10610,3363 C 10610,3373 10618,3381 10628,3381 L 10756,3381 10774,3381 10774,3380 Z"/>
         <path fill="rgb(255,0,0)" stroke="none" d="M 10971,3183 L 10971,3183 C 10971,3183 10972,3183 10971,3183 10981,3183 10989,3175 10989,3165 L 10989,3147 10989,3018 C 10989,3008 10981,3000 10971,3000 L 10970,3000 C 10959,3000 10952,3008 10952,3018 L 10952,3147 10952,3165 C 10953,3175 10962,3183 10971,3183 L 10971,3183 Z"/>
         <path fill="rgb(255,0,0)" stroke="none" d="M 11098,3234 C 11106,3242 11117,3242 11124,3234 L 11137,3221 11226,3131 C 11233,3125 11233,3113 11226,3106 L 11226,3106 C 11220,3099 11208,3099 11201,3106 L 11111,3196 11098,3208 C 11090,3216 11090,3228 11098,3234 L 11098,3234 Z"/>
         <path fill="rgb(255,0,0)" stroke="none" d="M 10806,3501 L 10717,3591 C 10710,3597 10710,3609 10717,3616 L 10718,3618 C 10724,3624 10736,3624 10744,3618 L 10833,3528 10846,3515 C 10853,3508 10853,3497 10846,3489 10837,3481 10827,3481 10819,3488 L 10806,3501 Z"/>
         <path fill="rgb(255,0,0)" stroke="none" d="M 10806,3223 L 10819,3236 C 10826,3242 10837,3242 10845,3236 L 10845,3236 C 10851,3229 10853,3218 10845,3210 L 10832,3197 10742,3107 C 10736,3100 10724,3100 10717,3107 L 10715,3108 C 10709,3115 10709,3126 10715,3134 L 10806,3223 Z"/>
         <path fill="rgb(255,0,0)" stroke="none" d="M 11592,3048 C 11582,3037 11564,3037 11554,3048 L 11259,3344 11187,3344 11169,3344 C 11158,3344 11151,3351 11151,3362 L 11151,3362 11151,3362 C 11151,3372 11158,3380 11169,3380 L 11187,3380 11221,3380 11117,3484 C 11111,3481 11103,3483 11098,3488 L 11098,3488 C 11093,3493 11092,3501 11094,3507 L 10990,3613 10990,3577 10990,3559 C 10990,3548 10982,3541 10972,3541 L 10972,3541 10972,3541 C 10962,3541 10954,3548 10954,3559 L 10954,3577 10954,3649 10649,3954 C 10638,3964 10638,3982 10649,3992 10654,3997 10661,4000 10668,4000 10674,4000 10682,3997 10687,3992 L 11591,3086 C 11603,3076 11603,3058 11592,3048 L 11592,3048 Z"/>
         <path fill="rgb(0,0,0)" stroke="none" d="M 11592,3048 C 11582,3037 11564,3037 11554,3048 L 10649,3954 C 10638,3964 10638,3982 10649,3992 10654,3997 10661,4000 10668,4000 10674,4000 10682,3997 10687,3992 L 11591,3086 C 11603,3076 11603,3058 11592,3048 L 11592,3048 Z"/>
         <path fill="rgb(0,0,255)" stroke="none" d="M 11450,3542 C 11409,3515 11357,3502 11303,3511 11208,3525 11137,3600 11126,3696 11112,3824 11211,3932 11336,3932 11378,3932 11417,3919 11450,3898 11460,3892 11458,3875 11446,3871 11382,3851 11336,3792 11336,3721 11336,3649 11382,3589 11446,3569 11458,3565 11461,3548 11450,3542 Z"/>
        </g>
       </g>
      </g>
      <g class="Graphic">
       <g id="id18">
        <rect class="BoundingBox" stroke="none" fill="none" x="13310" y="800" width="991" height="1001"/>
        <defs>
         <clipPath id="clip_path_16" clipPathUnits="userSpaceOnUse">
          <path d="M 13310,800 L 14300,800 14300,1800 13310,1800 13310,800 Z"/>
         </clipPath>
        </defs>
        <g clip-path="url(#clip_path_16)">
         <path fill="rgb(255,0,0)" stroke="none" d="M 13654,1289 C 13738,1299 13810,1229 13798,1145 13790,1087 13744,1041 13688,1034 13604,1023 13533,1093 13544,1178 13551,1236 13598,1283 13654,1289 Z"/>
         <path fill="rgb(255,0,0)" stroke="none" d="M 13474,1180 C 13485,1180 13492,1172 13492,1162 L 13492,1162 13492,1162 C 13492,1151 13485,1144 13474,1144 L 13456,1144 13328,1144 C 13318,1144 13310,1151 13310,1162 L 13310,1163 C 13310,1173 13318,1181 13328,1181 L 13456,1181 13474,1181 13474,1180 Z"/>
         <path fill="rgb(255,0,0)" stroke="none" d="M 13671,983 L 13671,983 C 13671,983 13672,983 13671,983 13681,983 13689,975 13689,965 L 13689,947 13689,818 C 13689,808 13681,800 13671,800 L 13670,800 C 13659,800 13652,808 13652,818 L 13652,947 13652,965 C 13653,975 13662,983 13671,983 L 13671,983 Z"/>
         <path fill="rgb(255,0,0)" stroke="none" d="M 13798,1034 C 13806,1042 13817,1042 13824,1034 L 13837,1021 13926,931 C 13933,925 13933,913 13926,906 L 13926,906 C 13920,899 13908,899 13901,906 L 13811,996 13798,1008 C 13790,1016 13790,1028 13798,1034 L 13798,1034 Z"/>
         <path fill="rgb(255,0,0)" stroke="none" d="M 13506,1301 L 13417,1391 C 13410,1397 13410,1409 13417,1416 L 13418,1418 C 13424,1424 13436,1424 13444,1418 L 13533,1328 13546,1315 C 13553,1308 13553,1297 13546,1289 13537,1281 13527,1281 13519,1288 L 13506,1301 Z"/>
         <path fill="rgb(255,0,0)" stroke="none" d="M 13506,1023 L 13519,1036 C 13526,1042 13537,1042 13545,1036 L 13545,1036 C 13551,1029 13553,1018 13545,1010 L 13532,997 13442,907 C 13436,900 13424,900 13417,907 L 13415,908 C 13409,915 13409,926 13415,934 L 13506,1023 Z"/>
         <path fill="rgb(255,0,0)" stroke="none" d="M 14292,848 C 14282,837 14264,837 14254,848 L 13959,1144 13887,1144 13869,1144 C 13858,1144 13851,1151 13851,1162 L 13851,1162 13851,1162 C 13851,1172 13858,1180 13869,1180 L 13887,1180 13921,1180 13817,1284 C 13811,1281 13803,1283 13798,1288 L 13798,1288 C 13793,1293 13792,1301 13794,1307 L 13690,1413 13690,1377 13690,1359 C 13690,1348 13682,1341 13672,1341 L 13672,1341 13672,1341 C 13662,1341 13654,1348 13654,1359 L 13654,1377 13654,1449 13349,1754 C 13338,1764 13338,1782 13349,1792 13354,1797 13361,1800 13368,1800 13374,1800 13382,1797 13387,1792 L 14291,886 C 14303,876 14303,858 14292,848 L 14292,848 Z"/>
         <path fill="rgb(0,0,0)" stroke="none" d="M 14292,848 C 14282,837 14264,837 14254,848 L 13349,1754 C 13338,1764 13338,1782 13349,1792 13354,1797 13361,1800 13368,1800 13374,1800 13382,1797 13387,1792 L 14291,886 C 14303,876 14303,858 14292,848 L 14292,848 Z"/>
         <path fill="rgb(0,0,255)" stroke="none" d="M 14150,1342 C 14109,1315 14057,1302 14003,1311 13908,1325 13837,1400 13826,1496 13812,1624 13911,1732 14036,1732 14078,1732 14117,1719 14150,1698 14160,1692 14158,1675 14146,1671 14082,1651 14036,1592 14036,1521 14036,1449 14082,1389 14146,1369 14158,1365 14161,1348 14150,1342 Z"/>
        </g>
       </g>
      </g>
     </g>
    </g>
   </g>
  </g>
 </g>
</svg>